<mxfile host="app.diagrams.net" agent="Mozilla/5.0 (X11; Ubuntu; Linux x86_64; rv:138.0) Gecko/20100101 Firefox/138.0" version="27.0.3">
  <diagram name="第 1 页" id="nden9D6ITigBBMDM2Ytv">
    <mxGraphModel dx="3316" dy="2077" grid="1" gridSize="10" guides="1" tooltips="1" connect="1" arrows="1" fold="1" page="1" pageScale="1" pageWidth="827" pageHeight="1169" math="0" shadow="0">
      <root>
        <mxCell id="0" />
        <mxCell id="1" parent="0" />
        <mxCell id="LAKNzCCuAKZaa_WfZxbo-12" style="edgeStyle=orthogonalEdgeStyle;rounded=0;orthogonalLoop=1;jettySize=auto;html=1;entryX=0.75;entryY=0;entryDx=0;entryDy=0;fontSize=15;" parent="1" source="LAKNzCCuAKZaa_WfZxbo-5" target="LAKNzCCuAKZaa_WfZxbo-8" edge="1">
          <mxGeometry relative="1" as="geometry" />
        </mxCell>
        <mxCell id="LAKNzCCuAKZaa_WfZxbo-5" value="非关键帧同拓扑obj" style="rounded=1;whiteSpace=wrap;html=1;fontSize=15;" parent="1" vertex="1">
          <mxGeometry x="550" y="110" width="120" height="60" as="geometry" />
        </mxCell>
        <mxCell id="gtqKSPDY2urYnu_UUiIA-2" style="edgeStyle=orthogonalEdgeStyle;rounded=0;orthogonalLoop=1;jettySize=auto;html=1;entryX=0.25;entryY=0;entryDx=0;entryDy=0;exitX=1;exitY=0.5;exitDx=0;exitDy=0;fontSize=15;" edge="1" parent="1" source="LAKNzCCuAKZaa_WfZxbo-6" target="gtqKSPDY2urYnu_UUiIA-1">
          <mxGeometry relative="1" as="geometry">
            <Array as="points">
              <mxPoint x="290" y="180" />
              <mxPoint x="290" y="180" />
            </Array>
          </mxGeometry>
        </mxCell>
        <mxCell id="LAKNzCCuAKZaa_WfZxbo-6" value="&lt;div&gt;关键帧ply&lt;/div&gt;" style="rounded=1;whiteSpace=wrap;html=1;fontSize=15;" parent="1" vertex="1">
          <mxGeometry x="140" y="110" width="120" height="60" as="geometry" />
        </mxCell>
        <mxCell id="LAKNzCCuAKZaa_WfZxbo-11" style="edgeStyle=orthogonalEdgeStyle;rounded=0;orthogonalLoop=1;jettySize=auto;html=1;entryX=0.25;entryY=0;entryDx=0;entryDy=0;fontSize=15;" parent="1" source="LAKNzCCuAKZaa_WfZxbo-7" target="LAKNzCCuAKZaa_WfZxbo-8" edge="1">
          <mxGeometry relative="1" as="geometry" />
        </mxCell>
        <mxCell id="gtqKSPDY2urYnu_UUiIA-3" style="edgeStyle=orthogonalEdgeStyle;rounded=0;orthogonalLoop=1;jettySize=auto;html=1;exitX=0.008;exitY=0.5;exitDx=0;exitDy=0;entryX=0.75;entryY=0;entryDx=0;entryDy=0;exitPerimeter=0;fontSize=15;" edge="1" parent="1" source="LAKNzCCuAKZaa_WfZxbo-7" target="gtqKSPDY2urYnu_UUiIA-1">
          <mxGeometry relative="1" as="geometry" />
        </mxCell>
        <mxCell id="LAKNzCCuAKZaa_WfZxbo-7" value="关键帧重拓扑obj" style="rounded=1;whiteSpace=wrap;html=1;fontSize=15;" parent="1" vertex="1">
          <mxGeometry x="380" y="110" width="120" height="60" as="geometry" />
        </mxCell>
        <mxCell id="LAKNzCCuAKZaa_WfZxbo-13" value="" style="edgeStyle=orthogonalEdgeStyle;rounded=0;orthogonalLoop=1;jettySize=auto;html=1;fontSize=15;" parent="1" source="LAKNzCCuAKZaa_WfZxbo-8" target="LAKNzCCuAKZaa_WfZxbo-9" edge="1">
          <mxGeometry relative="1" as="geometry" />
        </mxCell>
        <mxCell id="LAKNzCCuAKZaa_WfZxbo-8" value="计算t-1帧到t帧的三角面变换矩阵" style="rounded=0;whiteSpace=wrap;html=1;fontSize=15;" parent="1" vertex="1">
          <mxGeometry x="470" y="220" width="120" height="60" as="geometry" />
        </mxCell>
        <mxCell id="LAKNzCCuAKZaa_WfZxbo-17" style="edgeStyle=orthogonalEdgeStyle;rounded=0;orthogonalLoop=1;jettySize=auto;html=1;entryX=0.75;entryY=0;entryDx=0;entryDy=0;fontSize=15;" parent="1" source="LAKNzCCuAKZaa_WfZxbo-9" target="LAKNzCCuAKZaa_WfZxbo-15" edge="1">
          <mxGeometry relative="1" as="geometry" />
        </mxCell>
        <mxCell id="LAKNzCCuAKZaa_WfZxbo-9" value="t-1帧到t帧所有三角面的变换矩阵" style="rounded=1;whiteSpace=wrap;html=1;fontSize=15;" parent="1" vertex="1">
          <mxGeometry x="470" y="310" width="120" height="60" as="geometry" />
        </mxCell>
        <mxCell id="LAKNzCCuAKZaa_WfZxbo-14" value="&lt;div&gt;t-1帧ply&lt;/div&gt;" style="rounded=1;whiteSpace=wrap;html=1;fontSize=15;" parent="1" vertex="1">
          <mxGeometry x="50" y="425" width="120" height="60" as="geometry" />
        </mxCell>
        <mxCell id="LAKNzCCuAKZaa_WfZxbo-19" value="" style="edgeStyle=orthogonalEdgeStyle;rounded=0;orthogonalLoop=1;jettySize=auto;html=1;fontSize=15;" parent="1" source="LAKNzCCuAKZaa_WfZxbo-15" target="LAKNzCCuAKZaa_WfZxbo-18" edge="1">
          <mxGeometry relative="1" as="geometry" />
        </mxCell>
        <mxCell id="LAKNzCCuAKZaa_WfZxbo-15" value="应用变换" style="rounded=0;whiteSpace=wrap;html=1;fontSize=15;" parent="1" vertex="1">
          <mxGeometry x="380" y="425" width="120" height="60" as="geometry" />
        </mxCell>
        <mxCell id="LAKNzCCuAKZaa_WfZxbo-16" style="edgeStyle=orthogonalEdgeStyle;rounded=0;orthogonalLoop=1;jettySize=auto;html=1;entryX=0.5;entryY=0;entryDx=0;entryDy=0;fontSize=15;" parent="1" source="LAKNzCCuAKZaa_WfZxbo-20" target="LAKNzCCuAKZaa_WfZxbo-15" edge="1">
          <mxGeometry relative="1" as="geometry">
            <Array as="points">
              <mxPoint x="360" y="390" />
              <mxPoint x="440" y="390" />
            </Array>
          </mxGeometry>
        </mxCell>
        <mxCell id="LAKNzCCuAKZaa_WfZxbo-22" style="edgeStyle=orthogonalEdgeStyle;rounded=0;orthogonalLoop=1;jettySize=auto;html=1;entryX=0.5;entryY=1;entryDx=0;entryDy=0;exitX=0.5;exitY=1;exitDx=0;exitDy=0;dashed=1;fontSize=15;" parent="1" source="LAKNzCCuAKZaa_WfZxbo-23" target="LAKNzCCuAKZaa_WfZxbo-14" edge="1">
          <mxGeometry relative="1" as="geometry">
            <mxPoint x="360" y="630" as="sourcePoint" />
            <Array as="points">
              <mxPoint x="440" y="710" />
              <mxPoint x="110" y="710" />
            </Array>
          </mxGeometry>
        </mxCell>
        <mxCell id="LAKNzCCuAKZaa_WfZxbo-26" style="edgeStyle=orthogonalEdgeStyle;rounded=0;orthogonalLoop=1;jettySize=auto;html=1;fontSize=15;" parent="1" source="LAKNzCCuAKZaa_WfZxbo-18" target="LAKNzCCuAKZaa_WfZxbo-23" edge="1">
          <mxGeometry relative="1" as="geometry" />
        </mxCell>
        <mxCell id="LAKNzCCuAKZaa_WfZxbo-18" value="t帧的初始化ply" style="rounded=1;whiteSpace=wrap;html=1;fontSize=15;" parent="1" vertex="1">
          <mxGeometry x="380" y="510" width="120" height="60" as="geometry" />
        </mxCell>
        <mxCell id="LAKNzCCuAKZaa_WfZxbo-23" value="train2" style="rounded=0;whiteSpace=wrap;html=1;fontSize=15;" parent="1" vertex="1">
          <mxGeometry x="380" y="610" width="120" height="60" as="geometry" />
        </mxCell>
        <mxCell id="LAKNzCCuAKZaa_WfZxbo-27" style="edgeStyle=orthogonalEdgeStyle;rounded=0;orthogonalLoop=1;jettySize=auto;html=1;entryX=1;entryY=0.25;entryDx=0;entryDy=0;fontSize=15;" parent="1" source="LAKNzCCuAKZaa_WfZxbo-25" target="LAKNzCCuAKZaa_WfZxbo-23" edge="1">
          <mxGeometry relative="1" as="geometry" />
        </mxCell>
        <mxCell id="LAKNzCCuAKZaa_WfZxbo-25" value="images" style="rounded=1;whiteSpace=wrap;html=1;fontSize=15;" parent="1" vertex="1">
          <mxGeometry x="560" y="570" width="120" height="60" as="geometry" />
        </mxCell>
        <mxCell id="gtqKSPDY2urYnu_UUiIA-4" style="edgeStyle=orthogonalEdgeStyle;rounded=0;orthogonalLoop=1;jettySize=auto;html=1;entryX=0.5;entryY=0;entryDx=0;entryDy=0;fontSize=15;" edge="1" parent="1" source="gtqKSPDY2urYnu_UUiIA-1" target="LAKNzCCuAKZaa_WfZxbo-20">
          <mxGeometry relative="1" as="geometry" />
        </mxCell>
        <mxCell id="gtqKSPDY2urYnu_UUiIA-1" value="寻找最近点" style="rounded=0;whiteSpace=wrap;html=1;fontSize=15;" vertex="1" parent="1">
          <mxGeometry x="260" y="220" width="120" height="60" as="geometry" />
        </mxCell>
        <mxCell id="gtqKSPDY2urYnu_UUiIA-5" value="相机参数" style="rounded=1;whiteSpace=wrap;html=1;fontSize=15;" vertex="1" parent="1">
          <mxGeometry x="560" y="640" width="120" height="60" as="geometry" />
        </mxCell>
        <mxCell id="gtqKSPDY2urYnu_UUiIA-6" style="edgeStyle=orthogonalEdgeStyle;rounded=0;orthogonalLoop=1;jettySize=auto;html=1;entryX=0.989;entryY=0.698;entryDx=0;entryDy=0;entryPerimeter=0;fontSize=15;" edge="1" parent="1" source="gtqKSPDY2urYnu_UUiIA-5" target="LAKNzCCuAKZaa_WfZxbo-23">
          <mxGeometry relative="1" as="geometry" />
        </mxCell>
        <mxCell id="gtqKSPDY2urYnu_UUiIA-9" style="edgeStyle=orthogonalEdgeStyle;rounded=0;orthogonalLoop=1;jettySize=auto;html=1;entryX=0.75;entryY=0;entryDx=0;entryDy=0;fontSize=15;" edge="1" parent="1" source="gtqKSPDY2urYnu_UUiIA-10" target="gtqKSPDY2urYnu_UUiIA-17">
          <mxGeometry relative="1" as="geometry" />
        </mxCell>
        <mxCell id="gtqKSPDY2urYnu_UUiIA-10" value="非关键帧同拓扑obj" style="rounded=1;whiteSpace=wrap;html=1;fontSize=15;" vertex="1" parent="1">
          <mxGeometry x="-260" y="110" width="120" height="60" as="geometry" />
        </mxCell>
        <mxCell id="gtqKSPDY2urYnu_UUiIA-40" style="edgeStyle=orthogonalEdgeStyle;rounded=0;orthogonalLoop=1;jettySize=auto;html=1;entryX=0;entryY=0.5;entryDx=0;entryDy=0;exitX=0.25;exitY=1;exitDx=0;exitDy=0;fontSize=15;" edge="1" parent="1" source="gtqKSPDY2urYnu_UUiIA-12" target="gtqKSPDY2urYnu_UUiIA-22">
          <mxGeometry relative="1" as="geometry">
            <Array as="points">
              <mxPoint x="-650" y="455" />
            </Array>
          </mxGeometry>
        </mxCell>
        <mxCell id="gtqKSPDY2urYnu_UUiIA-41" style="edgeStyle=orthogonalEdgeStyle;rounded=0;orthogonalLoop=1;jettySize=auto;html=1;exitX=1;exitY=0.5;exitDx=0;exitDy=0;entryX=0.25;entryY=0;entryDx=0;entryDy=0;fontSize=15;" edge="1" parent="1" source="gtqKSPDY2urYnu_UUiIA-12" target="gtqKSPDY2urYnu_UUiIA-33">
          <mxGeometry relative="1" as="geometry" />
        </mxCell>
        <mxCell id="gtqKSPDY2urYnu_UUiIA-12" value="&lt;div&gt;关键帧ply&lt;/div&gt;" style="rounded=1;whiteSpace=wrap;html=1;fontSize=15;" vertex="1" parent="1">
          <mxGeometry x="-680" y="110" width="120" height="60" as="geometry" />
        </mxCell>
        <mxCell id="gtqKSPDY2urYnu_UUiIA-13" style="edgeStyle=orthogonalEdgeStyle;rounded=0;orthogonalLoop=1;jettySize=auto;html=1;entryX=0.25;entryY=0;entryDx=0;entryDy=0;fontSize=15;" edge="1" parent="1" source="gtqKSPDY2urYnu_UUiIA-15" target="gtqKSPDY2urYnu_UUiIA-17">
          <mxGeometry relative="1" as="geometry" />
        </mxCell>
        <mxCell id="gtqKSPDY2urYnu_UUiIA-14" style="edgeStyle=orthogonalEdgeStyle;rounded=0;orthogonalLoop=1;jettySize=auto;html=1;exitX=0;exitY=0.5;exitDx=0;exitDy=0;fontSize=15;" edge="1" parent="1" source="gtqKSPDY2urYnu_UUiIA-15" target="gtqKSPDY2urYnu_UUiIA-33">
          <mxGeometry relative="1" as="geometry" />
        </mxCell>
        <mxCell id="gtqKSPDY2urYnu_UUiIA-15" value="关键帧0重拓扑obj" style="rounded=1;whiteSpace=wrap;html=1;fontSize=15;" vertex="1" parent="1">
          <mxGeometry x="-430" y="110" width="120" height="60" as="geometry" />
        </mxCell>
        <mxCell id="gtqKSPDY2urYnu_UUiIA-16" value="" style="edgeStyle=orthogonalEdgeStyle;rounded=0;orthogonalLoop=1;jettySize=auto;html=1;fontSize=15;" edge="1" parent="1" source="gtqKSPDY2urYnu_UUiIA-17" target="gtqKSPDY2urYnu_UUiIA-19">
          <mxGeometry relative="1" as="geometry" />
        </mxCell>
        <mxCell id="gtqKSPDY2urYnu_UUiIA-17" value="计算0帧到t帧的三角面变换矩阵" style="rounded=0;whiteSpace=wrap;html=1;fontSize=15;" vertex="1" parent="1">
          <mxGeometry x="-340" y="220" width="120" height="60" as="geometry" />
        </mxCell>
        <mxCell id="gtqKSPDY2urYnu_UUiIA-18" style="edgeStyle=orthogonalEdgeStyle;rounded=0;orthogonalLoop=1;jettySize=auto;html=1;entryX=0.75;entryY=0;entryDx=0;entryDy=0;fontSize=15;" edge="1" parent="1" source="gtqKSPDY2urYnu_UUiIA-19" target="gtqKSPDY2urYnu_UUiIA-22">
          <mxGeometry relative="1" as="geometry" />
        </mxCell>
        <mxCell id="gtqKSPDY2urYnu_UUiIA-19" value="0帧到t帧所有三角面的变换矩阵" style="rounded=1;whiteSpace=wrap;html=1;fontSize=15;" vertex="1" parent="1">
          <mxGeometry x="-340" y="310" width="120" height="60" as="geometry" />
        </mxCell>
        <mxCell id="gtqKSPDY2urYnu_UUiIA-21" value="" style="edgeStyle=orthogonalEdgeStyle;rounded=0;orthogonalLoop=1;jettySize=auto;html=1;fontSize=15;" edge="1" parent="1" source="gtqKSPDY2urYnu_UUiIA-22" target="gtqKSPDY2urYnu_UUiIA-26">
          <mxGeometry relative="1" as="geometry" />
        </mxCell>
        <mxCell id="gtqKSPDY2urYnu_UUiIA-22" value="应用变换" style="rounded=0;whiteSpace=wrap;html=1;fontSize=15;" vertex="1" parent="1">
          <mxGeometry x="-430" y="425" width="120" height="60" as="geometry" />
        </mxCell>
        <mxCell id="gtqKSPDY2urYnu_UUiIA-25" style="edgeStyle=orthogonalEdgeStyle;rounded=0;orthogonalLoop=1;jettySize=auto;html=1;fontSize=15;" edge="1" parent="1" source="gtqKSPDY2urYnu_UUiIA-26" target="gtqKSPDY2urYnu_UUiIA-29">
          <mxGeometry relative="1" as="geometry" />
        </mxCell>
        <mxCell id="gtqKSPDY2urYnu_UUiIA-26" value="t帧的初始化ply" style="rounded=1;whiteSpace=wrap;html=1;fontSize=15;" vertex="1" parent="1">
          <mxGeometry x="-430" y="510" width="120" height="60" as="geometry" />
        </mxCell>
        <mxCell id="gtqKSPDY2urYnu_UUiIA-42" style="edgeStyle=orthogonalEdgeStyle;rounded=0;orthogonalLoop=1;jettySize=auto;html=1;entryX=0.25;entryY=0;entryDx=0;entryDy=0;fontSize=15;" edge="1" parent="1" source="gtqKSPDY2urYnu_UUiIA-28" target="gtqKSPDY2urYnu_UUiIA-22">
          <mxGeometry relative="1" as="geometry" />
        </mxCell>
        <mxCell id="gtqKSPDY2urYnu_UUiIA-28" value="ply与obj三角面的映射关系" style="rounded=1;whiteSpace=wrap;html=1;fontSize=15;" vertex="1" parent="1">
          <mxGeometry x="-550" y="310" width="120" height="60" as="geometry" />
        </mxCell>
        <mxCell id="gtqKSPDY2urYnu_UUiIA-29" value="train" style="rounded=0;whiteSpace=wrap;html=1;fontSize=15;" vertex="1" parent="1">
          <mxGeometry x="-430" y="610" width="120" height="60" as="geometry" />
        </mxCell>
        <mxCell id="gtqKSPDY2urYnu_UUiIA-30" style="edgeStyle=orthogonalEdgeStyle;rounded=0;orthogonalLoop=1;jettySize=auto;html=1;entryX=1;entryY=0.25;entryDx=0;entryDy=0;fontSize=15;" edge="1" parent="1" source="gtqKSPDY2urYnu_UUiIA-31" target="gtqKSPDY2urYnu_UUiIA-29">
          <mxGeometry relative="1" as="geometry" />
        </mxCell>
        <mxCell id="gtqKSPDY2urYnu_UUiIA-31" value="images" style="rounded=1;whiteSpace=wrap;html=1;fontSize=15;" vertex="1" parent="1">
          <mxGeometry x="-250" y="570" width="120" height="60" as="geometry" />
        </mxCell>
        <mxCell id="gtqKSPDY2urYnu_UUiIA-32" style="edgeStyle=orthogonalEdgeStyle;rounded=0;orthogonalLoop=1;jettySize=auto;html=1;entryX=0.5;entryY=0;entryDx=0;entryDy=0;fontSize=15;" edge="1" parent="1" source="gtqKSPDY2urYnu_UUiIA-33" target="gtqKSPDY2urYnu_UUiIA-28">
          <mxGeometry relative="1" as="geometry" />
        </mxCell>
        <mxCell id="gtqKSPDY2urYnu_UUiIA-33" value="寻找最近点" style="rounded=0;whiteSpace=wrap;html=1;fontSize=15;" vertex="1" parent="1">
          <mxGeometry x="-550" y="220" width="120" height="60" as="geometry" />
        </mxCell>
        <mxCell id="gtqKSPDY2urYnu_UUiIA-34" value="相机参数" style="rounded=1;whiteSpace=wrap;html=1;fontSize=15;" vertex="1" parent="1">
          <mxGeometry x="-250" y="640" width="120" height="60" as="geometry" />
        </mxCell>
        <mxCell id="gtqKSPDY2urYnu_UUiIA-35" style="edgeStyle=orthogonalEdgeStyle;rounded=0;orthogonalLoop=1;jettySize=auto;html=1;entryX=0.989;entryY=0.698;entryDx=0;entryDy=0;entryPerimeter=0;fontSize=15;" edge="1" parent="1" source="gtqKSPDY2urYnu_UUiIA-34" target="gtqKSPDY2urYnu_UUiIA-29">
          <mxGeometry relative="1" as="geometry" />
        </mxCell>
        <mxCell id="gtqKSPDY2urYnu_UUiIA-37" style="edgeStyle=orthogonalEdgeStyle;rounded=0;orthogonalLoop=1;jettySize=auto;html=1;fontSize=15;" edge="1" parent="1" source="gtqKSPDY2urYnu_UUiIA-36" target="LAKNzCCuAKZaa_WfZxbo-23">
          <mxGeometry relative="1" as="geometry" />
        </mxCell>
        <mxCell id="gtqKSPDY2urYnu_UUiIA-36" value="&lt;div&gt;t-1帧高斯图&lt;/div&gt;" style="rounded=1;whiteSpace=wrap;html=1;fontSize=15;" vertex="1" parent="1">
          <mxGeometry x="220" y="610" width="120" height="60" as="geometry" />
        </mxCell>
        <mxCell id="gtqKSPDY2urYnu_UUiIA-39" style="edgeStyle=orthogonalEdgeStyle;rounded=0;orthogonalLoop=1;jettySize=auto;html=1;fontSize=15;" edge="1" parent="1" source="gtqKSPDY2urYnu_UUiIA-38" target="gtqKSPDY2urYnu_UUiIA-29">
          <mxGeometry relative="1" as="geometry" />
        </mxCell>
        <mxCell id="gtqKSPDY2urYnu_UUiIA-38" value="&lt;div&gt;t-1帧高斯图&lt;/div&gt;" style="rounded=1;whiteSpace=wrap;html=1;fontSize=15;" vertex="1" parent="1">
          <mxGeometry x="-610" y="610" width="120" height="60" as="geometry" />
        </mxCell>
        <mxCell id="gtqKSPDY2urYnu_UUiIA-43" value="" style="edgeStyle=orthogonalEdgeStyle;rounded=0;orthogonalLoop=1;jettySize=auto;html=1;entryX=0;entryY=0.5;entryDx=0;entryDy=0;fontSize=15;" edge="1" parent="1" source="LAKNzCCuAKZaa_WfZxbo-14" target="LAKNzCCuAKZaa_WfZxbo-15">
          <mxGeometry relative="1" as="geometry">
            <Array as="points" />
            <mxPoint x="140" y="330" as="sourcePoint" />
            <mxPoint x="440" y="425" as="targetPoint" />
          </mxGeometry>
        </mxCell>
        <mxCell id="LAKNzCCuAKZaa_WfZxbo-20" value="ply与obj三角面的映射关系" style="rounded=1;whiteSpace=wrap;html=1;fontSize=15;" parent="1" vertex="1">
          <mxGeometry x="260" y="310" width="120" height="60" as="geometry" />
        </mxCell>
        <mxCell id="gtqKSPDY2urYnu_UUiIA-73" style="edgeStyle=orthogonalEdgeStyle;rounded=0;orthogonalLoop=1;jettySize=auto;html=1;entryX=0.5;entryY=1;entryDx=0;entryDy=0;exitX=0.5;exitY=1;exitDx=0;exitDy=0;dashed=1;fontSize=15;" edge="1" parent="1" source="gtqKSPDY2urYnu_UUiIA-29" target="gtqKSPDY2urYnu_UUiIA-38">
          <mxGeometry relative="1" as="geometry">
            <mxPoint x="-220" y="885" as="sourcePoint" />
            <Array as="points">
              <mxPoint x="-370" y="710" />
              <mxPoint x="-550" y="710" />
            </Array>
            <mxPoint x="-550" y="700" as="targetPoint" />
          </mxGeometry>
        </mxCell>
        <mxCell id="gtqKSPDY2urYnu_UUiIA-74" style="edgeStyle=orthogonalEdgeStyle;rounded=0;orthogonalLoop=1;jettySize=auto;html=1;exitX=0.25;exitY=1;exitDx=0;exitDy=0;entryX=0.4;entryY=1.017;entryDx=0;entryDy=0;entryPerimeter=0;dashed=1;fontSize=15;" edge="1" parent="1" source="LAKNzCCuAKZaa_WfZxbo-23" target="gtqKSPDY2urYnu_UUiIA-36">
          <mxGeometry relative="1" as="geometry" />
        </mxCell>
        <mxCell id="gtqKSPDY2urYnu_UUiIA-75" style="edgeStyle=orthogonalEdgeStyle;rounded=0;orthogonalLoop=1;jettySize=auto;html=1;entryX=0.25;entryY=0;entryDx=0;entryDy=0;fontSize=15;" edge="1" parent="1" source="gtqKSPDY2urYnu_UUiIA-76" target="gtqKSPDY2urYnu_UUiIA-83">
          <mxGeometry relative="1" as="geometry" />
        </mxCell>
        <mxCell id="gtqKSPDY2urYnu_UUiIA-105" style="edgeStyle=orthogonalEdgeStyle;rounded=0;orthogonalLoop=1;jettySize=auto;html=1;exitX=0.25;exitY=1;exitDx=0;exitDy=0;entryX=0.75;entryY=0;entryDx=0;entryDy=0;fontSize=15;" edge="1" parent="1" source="gtqKSPDY2urYnu_UUiIA-76" target="gtqKSPDY2urYnu_UUiIA-97">
          <mxGeometry relative="1" as="geometry" />
        </mxCell>
        <mxCell id="gtqKSPDY2urYnu_UUiIA-76" value="非关键帧同拓扑obj" style="rounded=1;whiteSpace=wrap;html=1;fontSize=15;" vertex="1" parent="1">
          <mxGeometry x="1260" y="100" width="120" height="60" as="geometry" />
        </mxCell>
        <mxCell id="gtqKSPDY2urYnu_UUiIA-107" value="" style="edgeStyle=orthogonalEdgeStyle;rounded=0;orthogonalLoop=1;jettySize=auto;html=1;fontSize=15;" edge="1" parent="1" source="gtqKSPDY2urYnu_UUiIA-78" target="gtqKSPDY2urYnu_UUiIA-86">
          <mxGeometry relative="1" as="geometry" />
        </mxCell>
        <mxCell id="gtqKSPDY2urYnu_UUiIA-78" value="&lt;div&gt;关键帧ply&lt;/div&gt;" style="rounded=1;whiteSpace=wrap;html=1;fontSize=15;" vertex="1" parent="1">
          <mxGeometry x="930" y="10" width="120" height="60" as="geometry" />
        </mxCell>
        <mxCell id="gtqKSPDY2urYnu_UUiIA-79" style="edgeStyle=orthogonalEdgeStyle;rounded=0;orthogonalLoop=1;jettySize=auto;html=1;fontSize=15;" edge="1" parent="1" source="gtqKSPDY2urYnu_UUiIA-81" target="gtqKSPDY2urYnu_UUiIA-83">
          <mxGeometry relative="1" as="geometry" />
        </mxCell>
        <mxCell id="gtqKSPDY2urYnu_UUiIA-81" value="关键帧重拓扑obj" style="rounded=1;whiteSpace=wrap;html=1;fontSize=15;" vertex="1" parent="1">
          <mxGeometry x="1430" y="100" width="120" height="60" as="geometry" />
        </mxCell>
        <mxCell id="gtqKSPDY2urYnu_UUiIA-82" value="" style="edgeStyle=orthogonalEdgeStyle;rounded=0;orthogonalLoop=1;jettySize=auto;html=1;fontSize=15;" edge="1" parent="1" source="gtqKSPDY2urYnu_UUiIA-83" target="gtqKSPDY2urYnu_UUiIA-85">
          <mxGeometry relative="1" as="geometry" />
        </mxCell>
        <mxCell id="gtqKSPDY2urYnu_UUiIA-83" value="计算t-1帧到t帧的三角面变换矩阵" style="rounded=0;whiteSpace=wrap;html=1;fontSize=15;" vertex="1" parent="1">
          <mxGeometry x="1340" y="220" width="120" height="60" as="geometry" />
        </mxCell>
        <mxCell id="gtqKSPDY2urYnu_UUiIA-84" style="edgeStyle=orthogonalEdgeStyle;rounded=0;orthogonalLoop=1;jettySize=auto;html=1;entryX=0.75;entryY=0;entryDx=0;entryDy=0;fontSize=15;" edge="1" parent="1" source="gtqKSPDY2urYnu_UUiIA-85" target="gtqKSPDY2urYnu_UUiIA-88">
          <mxGeometry relative="1" as="geometry" />
        </mxCell>
        <mxCell id="gtqKSPDY2urYnu_UUiIA-85" value="t-1帧到t帧所有三角面的变换矩阵" style="rounded=1;whiteSpace=wrap;html=1;fontSize=15;" vertex="1" parent="1">
          <mxGeometry x="1340" y="310" width="120" height="60" as="geometry" />
        </mxCell>
        <mxCell id="gtqKSPDY2urYnu_UUiIA-106" style="edgeStyle=orthogonalEdgeStyle;rounded=0;orthogonalLoop=1;jettySize=auto;html=1;entryX=0.25;entryY=0;entryDx=0;entryDy=0;exitX=1;exitY=0.5;exitDx=0;exitDy=0;fontSize=15;" edge="1" parent="1" source="gtqKSPDY2urYnu_UUiIA-86" target="gtqKSPDY2urYnu_UUiIA-97">
          <mxGeometry relative="1" as="geometry">
            <Array as="points">
              <mxPoint x="1160" y="130" />
            </Array>
          </mxGeometry>
        </mxCell>
        <mxCell id="gtqKSPDY2urYnu_UUiIA-86" value="&lt;div&gt;t-1帧ply&lt;/div&gt;" style="rounded=1;whiteSpace=wrap;html=1;fontSize=15;" vertex="1" parent="1">
          <mxGeometry x="930" y="100" width="120" height="60" as="geometry" />
        </mxCell>
        <mxCell id="gtqKSPDY2urYnu_UUiIA-87" value="" style="edgeStyle=orthogonalEdgeStyle;rounded=0;orthogonalLoop=1;jettySize=auto;html=1;fontSize=15;" edge="1" parent="1" source="gtqKSPDY2urYnu_UUiIA-88" target="gtqKSPDY2urYnu_UUiIA-92">
          <mxGeometry relative="1" as="geometry" />
        </mxCell>
        <mxCell id="gtqKSPDY2urYnu_UUiIA-88" value="应用变换" style="rounded=0;whiteSpace=wrap;html=1;fontSize=15;" vertex="1" parent="1">
          <mxGeometry x="1250" y="425" width="120" height="60" as="geometry" />
        </mxCell>
        <mxCell id="gtqKSPDY2urYnu_UUiIA-89" style="edgeStyle=orthogonalEdgeStyle;rounded=0;orthogonalLoop=1;jettySize=auto;html=1;entryX=0.5;entryY=0;entryDx=0;entryDy=0;fontSize=15;" edge="1" parent="1" source="gtqKSPDY2urYnu_UUiIA-103" target="gtqKSPDY2urYnu_UUiIA-88">
          <mxGeometry relative="1" as="geometry">
            <Array as="points">
              <mxPoint x="1230" y="390" />
              <mxPoint x="1310" y="390" />
            </Array>
          </mxGeometry>
        </mxCell>
        <mxCell id="gtqKSPDY2urYnu_UUiIA-90" style="edgeStyle=orthogonalEdgeStyle;rounded=0;orthogonalLoop=1;jettySize=auto;html=1;entryX=0;entryY=0.5;entryDx=0;entryDy=0;exitX=0.5;exitY=1;exitDx=0;exitDy=0;dashed=1;fontSize=15;" edge="1" parent="1" source="gtqKSPDY2urYnu_UUiIA-93" target="gtqKSPDY2urYnu_UUiIA-86">
          <mxGeometry relative="1" as="geometry">
            <mxPoint x="1230" y="630" as="sourcePoint" />
            <Array as="points">
              <mxPoint x="1310" y="710" />
              <mxPoint x="900" y="710" />
              <mxPoint x="900" y="130" />
            </Array>
          </mxGeometry>
        </mxCell>
        <mxCell id="gtqKSPDY2urYnu_UUiIA-91" style="edgeStyle=orthogonalEdgeStyle;rounded=0;orthogonalLoop=1;jettySize=auto;html=1;fontSize=15;" edge="1" parent="1" source="gtqKSPDY2urYnu_UUiIA-92" target="gtqKSPDY2urYnu_UUiIA-93">
          <mxGeometry relative="1" as="geometry" />
        </mxCell>
        <mxCell id="gtqKSPDY2urYnu_UUiIA-92" value="t帧的初始化ply" style="rounded=1;whiteSpace=wrap;html=1;fontSize=15;" vertex="1" parent="1">
          <mxGeometry x="1250" y="510" width="120" height="60" as="geometry" />
        </mxCell>
        <mxCell id="gtqKSPDY2urYnu_UUiIA-93" value="train3" style="rounded=0;whiteSpace=wrap;html=1;fontSize=15;" vertex="1" parent="1">
          <mxGeometry x="1250" y="610" width="120" height="60" as="geometry" />
        </mxCell>
        <mxCell id="gtqKSPDY2urYnu_UUiIA-94" style="edgeStyle=orthogonalEdgeStyle;rounded=0;orthogonalLoop=1;jettySize=auto;html=1;entryX=1;entryY=0.25;entryDx=0;entryDy=0;fontSize=15;" edge="1" parent="1" source="gtqKSPDY2urYnu_UUiIA-95" target="gtqKSPDY2urYnu_UUiIA-93">
          <mxGeometry relative="1" as="geometry" />
        </mxCell>
        <mxCell id="gtqKSPDY2urYnu_UUiIA-95" value="images" style="rounded=1;whiteSpace=wrap;html=1;fontSize=15;" vertex="1" parent="1">
          <mxGeometry x="1430" y="570" width="120" height="60" as="geometry" />
        </mxCell>
        <mxCell id="gtqKSPDY2urYnu_UUiIA-96" style="edgeStyle=orthogonalEdgeStyle;rounded=0;orthogonalLoop=1;jettySize=auto;html=1;entryX=0.5;entryY=0;entryDx=0;entryDy=0;fontSize=15;" edge="1" parent="1" source="gtqKSPDY2urYnu_UUiIA-97" target="gtqKSPDY2urYnu_UUiIA-103">
          <mxGeometry relative="1" as="geometry" />
        </mxCell>
        <mxCell id="gtqKSPDY2urYnu_UUiIA-97" value="寻找最近点" style="rounded=0;whiteSpace=wrap;html=1;fontSize=15;" vertex="1" parent="1">
          <mxGeometry x="1130" y="210" width="120" height="60" as="geometry" />
        </mxCell>
        <mxCell id="gtqKSPDY2urYnu_UUiIA-98" value="相机参数" style="rounded=1;whiteSpace=wrap;html=1;fontSize=15;" vertex="1" parent="1">
          <mxGeometry x="1430" y="640" width="120" height="60" as="geometry" />
        </mxCell>
        <mxCell id="gtqKSPDY2urYnu_UUiIA-99" style="edgeStyle=orthogonalEdgeStyle;rounded=0;orthogonalLoop=1;jettySize=auto;html=1;entryX=0.989;entryY=0.698;entryDx=0;entryDy=0;entryPerimeter=0;fontSize=15;" edge="1" parent="1" source="gtqKSPDY2urYnu_UUiIA-98" target="gtqKSPDY2urYnu_UUiIA-93">
          <mxGeometry relative="1" as="geometry" />
        </mxCell>
        <mxCell id="gtqKSPDY2urYnu_UUiIA-100" style="edgeStyle=orthogonalEdgeStyle;rounded=0;orthogonalLoop=1;jettySize=auto;html=1;fontSize=15;" edge="1" parent="1" source="gtqKSPDY2urYnu_UUiIA-101" target="gtqKSPDY2urYnu_UUiIA-93">
          <mxGeometry relative="1" as="geometry" />
        </mxCell>
        <mxCell id="gtqKSPDY2urYnu_UUiIA-101" value="&lt;div&gt;t-1帧高斯图&lt;/div&gt;" style="rounded=1;whiteSpace=wrap;html=1;fontSize=15;" vertex="1" parent="1">
          <mxGeometry x="1090" y="610" width="120" height="60" as="geometry" />
        </mxCell>
        <mxCell id="gtqKSPDY2urYnu_UUiIA-102" value="" style="edgeStyle=orthogonalEdgeStyle;rounded=0;orthogonalLoop=1;jettySize=auto;html=1;entryX=0;entryY=0.5;entryDx=0;entryDy=0;fontSize=15;" edge="1" parent="1" source="gtqKSPDY2urYnu_UUiIA-86" target="gtqKSPDY2urYnu_UUiIA-88">
          <mxGeometry relative="1" as="geometry">
            <Array as="points">
              <mxPoint x="990" y="455" />
            </Array>
            <mxPoint x="1010" y="330" as="sourcePoint" />
            <mxPoint x="1310" y="425" as="targetPoint" />
          </mxGeometry>
        </mxCell>
        <mxCell id="gtqKSPDY2urYnu_UUiIA-103" value="ply与obj三角面的映射关系" style="rounded=1;whiteSpace=wrap;html=1;fontSize=15;" vertex="1" parent="1">
          <mxGeometry x="1130" y="310" width="120" height="60" as="geometry" />
        </mxCell>
        <mxCell id="gtqKSPDY2urYnu_UUiIA-104" style="edgeStyle=orthogonalEdgeStyle;rounded=0;orthogonalLoop=1;jettySize=auto;html=1;exitX=0.25;exitY=1;exitDx=0;exitDy=0;entryX=0.4;entryY=1.017;entryDx=0;entryDy=0;entryPerimeter=0;dashed=1;fontSize=15;" edge="1" parent="1" source="gtqKSPDY2urYnu_UUiIA-93" target="gtqKSPDY2urYnu_UUiIA-101">
          <mxGeometry relative="1" as="geometry" />
        </mxCell>
        <mxCell id="gtqKSPDY2urYnu_UUiIA-119" value="" style="edgeStyle=orthogonalEdgeStyle;rounded=0;orthogonalLoop=1;jettySize=auto;html=1;fontSize=15;" edge="1" parent="1" source="gtqKSPDY2urYnu_UUiIA-108" target="gtqKSPDY2urYnu_UUiIA-111">
          <mxGeometry relative="1" as="geometry" />
        </mxCell>
        <mxCell id="gtqKSPDY2urYnu_UUiIA-108" value="init_ply" style="rounded=1;whiteSpace=wrap;html=1;fontSize=15;" vertex="1" parent="1">
          <mxGeometry x="-550" y="1260" width="120" height="60" as="geometry" />
        </mxCell>
        <mxCell id="gtqKSPDY2urYnu_UUiIA-123" value="" style="edgeStyle=orthogonalEdgeStyle;rounded=0;orthogonalLoop=1;jettySize=auto;html=1;fontSize=15;" edge="1" parent="1" source="gtqKSPDY2urYnu_UUiIA-109" target="gtqKSPDY2urYnu_UUiIA-110">
          <mxGeometry relative="1" as="geometry" />
        </mxCell>
        <mxCell id="gtqKSPDY2urYnu_UUiIA-109" value="init_attribute" style="rounded=1;whiteSpace=wrap;html=1;fontSize=15;" vertex="1" parent="1">
          <mxGeometry x="-380" y="1260" width="120" height="60" as="geometry" />
        </mxCell>
        <mxCell id="gtqKSPDY2urYnu_UUiIA-135" style="edgeStyle=orthogonalEdgeStyle;rounded=0;orthogonalLoop=1;jettySize=auto;html=1;entryX=1;entryY=0.5;entryDx=0;entryDy=0;fontSize=15;" edge="1" parent="1" source="gtqKSPDY2urYnu_UUiIA-110" target="gtqKSPDY2urYnu_UUiIA-132">
          <mxGeometry relative="1" as="geometry">
            <Array as="points">
              <mxPoint x="-320" y="1751" />
            </Array>
          </mxGeometry>
        </mxCell>
        <mxCell id="gtqKSPDY2urYnu_UUiIA-110" value="计算正则化项" style="rounded=0;whiteSpace=wrap;html=1;fontSize=15;" vertex="1" parent="1">
          <mxGeometry x="-380" y="1450" width="120" height="60" as="geometry" />
        </mxCell>
        <mxCell id="gtqKSPDY2urYnu_UUiIA-124" style="edgeStyle=orthogonalEdgeStyle;rounded=0;orthogonalLoop=1;jettySize=auto;html=1;entryX=0;entryY=0.5;entryDx=0;entryDy=0;exitX=1;exitY=0.5;exitDx=0;exitDy=0;fontSize=15;" edge="1" parent="1" source="gtqKSPDY2urYnu_UUiIA-136" target="gtqKSPDY2urYnu_UUiIA-110">
          <mxGeometry relative="1" as="geometry" />
        </mxCell>
        <mxCell id="gtqKSPDY2urYnu_UUiIA-137" value="" style="edgeStyle=orthogonalEdgeStyle;rounded=0;orthogonalLoop=1;jettySize=auto;html=1;fontSize=15;" edge="1" parent="1" source="gtqKSPDY2urYnu_UUiIA-111" target="gtqKSPDY2urYnu_UUiIA-136">
          <mxGeometry relative="1" as="geometry" />
        </mxCell>
        <mxCell id="gtqKSPDY2urYnu_UUiIA-111" value="前向传播" style="rounded=0;whiteSpace=wrap;html=1;fontSize=15;" vertex="1" parent="1">
          <mxGeometry x="-550" y="1360" width="120" height="60" as="geometry" />
        </mxCell>
        <mxCell id="gtqKSPDY2urYnu_UUiIA-118" value="" style="edgeStyle=orthogonalEdgeStyle;rounded=0;orthogonalLoop=1;jettySize=auto;html=1;fontSize=15;" edge="1" parent="1" source="gtqKSPDY2urYnu_UUiIA-112" target="gtqKSPDY2urYnu_UUiIA-116">
          <mxGeometry relative="1" as="geometry">
            <Array as="points">
              <mxPoint x="-650" y="1670" />
            </Array>
          </mxGeometry>
        </mxCell>
        <mxCell id="gtqKSPDY2urYnu_UUiIA-112" value="images" style="rounded=1;whiteSpace=wrap;html=1;fontSize=15;" vertex="1" parent="1">
          <mxGeometry x="-700" y="1260" width="120" height="60" as="geometry" />
        </mxCell>
        <mxCell id="gtqKSPDY2urYnu_UUiIA-133" value="" style="edgeStyle=orthogonalEdgeStyle;rounded=0;orthogonalLoop=1;jettySize=auto;html=1;fontSize=15;" edge="1" parent="1" source="gtqKSPDY2urYnu_UUiIA-132" target="gtqKSPDY2urYnu_UUiIA-125">
          <mxGeometry relative="1" as="geometry" />
        </mxCell>
        <mxCell id="gtqKSPDY2urYnu_UUiIA-116" value="计算E color" style="whiteSpace=wrap;html=1;rounded=0;fontSize=15;" vertex="1" parent="1">
          <mxGeometry x="-550" y="1636" width="120" height="60" as="geometry" />
        </mxCell>
        <mxCell id="gtqKSPDY2urYnu_UUiIA-122" value="" style="edgeStyle=orthogonalEdgeStyle;rounded=0;orthogonalLoop=1;jettySize=auto;html=1;fontSize=15;" edge="1" parent="1" source="gtqKSPDY2urYnu_UUiIA-120" target="gtqKSPDY2urYnu_UUiIA-116">
          <mxGeometry relative="1" as="geometry" />
        </mxCell>
        <mxCell id="gtqKSPDY2urYnu_UUiIA-120" value="渲染图像" style="rounded=1;whiteSpace=wrap;html=1;fontSize=15;" vertex="1" parent="1">
          <mxGeometry x="-550" y="1556" width="120" height="60" as="geometry" />
        </mxCell>
        <mxCell id="gtqKSPDY2urYnu_UUiIA-129" value="" style="edgeStyle=orthogonalEdgeStyle;rounded=0;orthogonalLoop=1;jettySize=auto;html=1;fontSize=15;" edge="1" parent="1" source="gtqKSPDY2urYnu_UUiIA-125" target="gtqKSPDY2urYnu_UUiIA-126">
          <mxGeometry relative="1" as="geometry" />
        </mxCell>
        <mxCell id="gtqKSPDY2urYnu_UUiIA-125" value="反向传播" style="rounded=0;whiteSpace=wrap;html=1;fontSize=15;" vertex="1" parent="1">
          <mxGeometry x="-550" y="1816" width="120" height="60" as="geometry" />
        </mxCell>
        <mxCell id="gtqKSPDY2urYnu_UUiIA-126" value="更新参数" style="rounded=0;whiteSpace=wrap;html=1;fontSize=15;" vertex="1" parent="1">
          <mxGeometry x="-550" y="1906" width="120" height="60" as="geometry" />
        </mxCell>
        <mxCell id="gtqKSPDY2urYnu_UUiIA-131" style="edgeStyle=orthogonalEdgeStyle;rounded=0;orthogonalLoop=1;jettySize=auto;html=1;entryX=1;entryY=0.5;entryDx=0;entryDy=0;fontSize=15;" edge="1" parent="1" source="gtqKSPDY2urYnu_UUiIA-130" target="gtqKSPDY2urYnu_UUiIA-126">
          <mxGeometry relative="1" as="geometry">
            <Array as="points">
              <mxPoint x="-160" y="1936" />
            </Array>
          </mxGeometry>
        </mxCell>
        <mxCell id="gtqKSPDY2urYnu_UUiIA-130" value="mask" style="rounded=1;whiteSpace=wrap;html=1;fontSize=15;" vertex="1" parent="1">
          <mxGeometry x="-220" y="1260" width="120" height="60" as="geometry" />
        </mxCell>
        <mxCell id="gtqKSPDY2urYnu_UUiIA-134" value="" style="edgeStyle=orthogonalEdgeStyle;rounded=0;orthogonalLoop=1;jettySize=auto;html=1;fontSize=15;" edge="1" parent="1" source="gtqKSPDY2urYnu_UUiIA-116" target="gtqKSPDY2urYnu_UUiIA-132">
          <mxGeometry relative="1" as="geometry">
            <mxPoint x="-490" y="1696" as="sourcePoint" />
            <mxPoint x="-490" y="1816" as="targetPoint" />
          </mxGeometry>
        </mxCell>
        <mxCell id="gtqKSPDY2urYnu_UUiIA-132" value="" style="shape=orEllipse;perimeter=ellipsePerimeter;whiteSpace=wrap;html=1;backgroundOutline=1;fontSize=15;" vertex="1" parent="1">
          <mxGeometry x="-505" y="1736" width="30" height="30" as="geometry" />
        </mxCell>
        <mxCell id="gtqKSPDY2urYnu_UUiIA-138" value="" style="edgeStyle=orthogonalEdgeStyle;rounded=0;orthogonalLoop=1;jettySize=auto;html=1;fontSize=15;" edge="1" parent="1" source="gtqKSPDY2urYnu_UUiIA-136" target="gtqKSPDY2urYnu_UUiIA-120">
          <mxGeometry relative="1" as="geometry" />
        </mxCell>
        <mxCell id="gtqKSPDY2urYnu_UUiIA-136" value="优化参数" style="rounded=1;whiteSpace=wrap;html=1;fontSize=15;" vertex="1" parent="1">
          <mxGeometry x="-550" y="1450" width="120" height="60" as="geometry" />
        </mxCell>
        <mxCell id="gtqKSPDY2urYnu_UUiIA-139" value="" style="edgeStyle=orthogonalEdgeStyle;rounded=0;orthogonalLoop=1;jettySize=auto;html=1;fontSize=15;" edge="1" parent="1" source="gtqKSPDY2urYnu_UUiIA-140" target="gtqKSPDY2urYnu_UUiIA-147">
          <mxGeometry relative="1" as="geometry" />
        </mxCell>
        <mxCell id="gtqKSPDY2urYnu_UUiIA-140" value="init_ply" style="rounded=1;whiteSpace=wrap;html=1;fontSize=15;" vertex="1" parent="1">
          <mxGeometry x="1050" y="1220" width="120" height="60" as="geometry" />
        </mxCell>
        <mxCell id="gtqKSPDY2urYnu_UUiIA-141" value="" style="edgeStyle=orthogonalEdgeStyle;rounded=0;orthogonalLoop=1;jettySize=auto;html=1;fontSize=15;" edge="1" parent="1" source="gtqKSPDY2urYnu_UUiIA-142" target="gtqKSPDY2urYnu_UUiIA-144">
          <mxGeometry relative="1" as="geometry" />
        </mxCell>
        <mxCell id="gtqKSPDY2urYnu_UUiIA-142" value="init_attribute" style="rounded=1;whiteSpace=wrap;html=1;fontSize=15;" vertex="1" parent="1">
          <mxGeometry x="1220" y="1220" width="120" height="60" as="geometry" />
        </mxCell>
        <mxCell id="gtqKSPDY2urYnu_UUiIA-143" style="edgeStyle=orthogonalEdgeStyle;rounded=0;orthogonalLoop=1;jettySize=auto;html=1;entryX=1;entryY=0.5;entryDx=0;entryDy=0;fontSize=15;" edge="1" parent="1" source="gtqKSPDY2urYnu_UUiIA-144" target="gtqKSPDY2urYnu_UUiIA-160">
          <mxGeometry relative="1" as="geometry">
            <Array as="points">
              <mxPoint x="1280" y="1711" />
            </Array>
          </mxGeometry>
        </mxCell>
        <mxCell id="gtqKSPDY2urYnu_UUiIA-144" value="&lt;div&gt;计算正则化项&lt;/div&gt;&lt;div&gt;E temp和E smooth&lt;/div&gt;" style="rounded=0;whiteSpace=wrap;html=1;fontSize=15;" vertex="1" parent="1">
          <mxGeometry x="1220" y="1410" width="120" height="60" as="geometry" />
        </mxCell>
        <mxCell id="gtqKSPDY2urYnu_UUiIA-145" style="edgeStyle=orthogonalEdgeStyle;rounded=0;orthogonalLoop=1;jettySize=auto;html=1;entryX=0;entryY=0.5;entryDx=0;entryDy=0;exitX=1;exitY=0.5;exitDx=0;exitDy=0;fontSize=15;" edge="1" parent="1" source="gtqKSPDY2urYnu_UUiIA-162" target="gtqKSPDY2urYnu_UUiIA-144">
          <mxGeometry relative="1" as="geometry" />
        </mxCell>
        <mxCell id="gtqKSPDY2urYnu_UUiIA-146" value="" style="edgeStyle=orthogonalEdgeStyle;rounded=0;orthogonalLoop=1;jettySize=auto;html=1;fontSize=15;" edge="1" parent="1" source="gtqKSPDY2urYnu_UUiIA-147" target="gtqKSPDY2urYnu_UUiIA-162">
          <mxGeometry relative="1" as="geometry" />
        </mxCell>
        <mxCell id="gtqKSPDY2urYnu_UUiIA-147" value="前向传播" style="rounded=0;whiteSpace=wrap;html=1;fontSize=15;" vertex="1" parent="1">
          <mxGeometry x="1050" y="1320" width="120" height="60" as="geometry" />
        </mxCell>
        <mxCell id="gtqKSPDY2urYnu_UUiIA-148" value="" style="edgeStyle=orthogonalEdgeStyle;rounded=0;orthogonalLoop=1;jettySize=auto;html=1;fontSize=15;" edge="1" parent="1" source="gtqKSPDY2urYnu_UUiIA-149" target="gtqKSPDY2urYnu_UUiIA-151">
          <mxGeometry relative="1" as="geometry">
            <Array as="points">
              <mxPoint x="950" y="1630" />
            </Array>
          </mxGeometry>
        </mxCell>
        <mxCell id="gtqKSPDY2urYnu_UUiIA-149" value="images" style="rounded=1;whiteSpace=wrap;html=1;fontSize=15;" vertex="1" parent="1">
          <mxGeometry x="900" y="1220" width="120" height="60" as="geometry" />
        </mxCell>
        <mxCell id="gtqKSPDY2urYnu_UUiIA-150" value="" style="edgeStyle=orthogonalEdgeStyle;rounded=0;orthogonalLoop=1;jettySize=auto;html=1;fontSize=15;" edge="1" parent="1" source="gtqKSPDY2urYnu_UUiIA-160" target="gtqKSPDY2urYnu_UUiIA-155">
          <mxGeometry relative="1" as="geometry" />
        </mxCell>
        <mxCell id="gtqKSPDY2urYnu_UUiIA-151" value="计算E color" style="whiteSpace=wrap;html=1;rounded=0;fontSize=15;" vertex="1" parent="1">
          <mxGeometry x="1050" y="1596" width="120" height="60" as="geometry" />
        </mxCell>
        <mxCell id="gtqKSPDY2urYnu_UUiIA-152" value="" style="edgeStyle=orthogonalEdgeStyle;rounded=0;orthogonalLoop=1;jettySize=auto;html=1;fontSize=15;" edge="1" parent="1" source="gtqKSPDY2urYnu_UUiIA-153" target="gtqKSPDY2urYnu_UUiIA-151">
          <mxGeometry relative="1" as="geometry" />
        </mxCell>
        <mxCell id="gtqKSPDY2urYnu_UUiIA-153" value="渲染图像" style="rounded=1;whiteSpace=wrap;html=1;fontSize=15;" vertex="1" parent="1">
          <mxGeometry x="1050" y="1496" width="120" height="60" as="geometry" />
        </mxCell>
        <mxCell id="gtqKSPDY2urYnu_UUiIA-154" value="" style="edgeStyle=orthogonalEdgeStyle;rounded=0;orthogonalLoop=1;jettySize=auto;html=1;entryX=0.5;entryY=0;entryDx=0;entryDy=0;fontSize=15;" edge="1" parent="1" source="gtqKSPDY2urYnu_UUiIA-155" target="gtqKSPDY2urYnu_UUiIA-163">
          <mxGeometry relative="1" as="geometry" />
        </mxCell>
        <mxCell id="gtqKSPDY2urYnu_UUiIA-155" value="反向传播" style="rounded=0;whiteSpace=wrap;html=1;fontSize=15;" vertex="1" parent="1">
          <mxGeometry x="1050" y="1776" width="120" height="60" as="geometry" />
        </mxCell>
        <mxCell id="gtqKSPDY2urYnu_UUiIA-156" value="更新参数" style="rounded=0;whiteSpace=wrap;html=1;fontSize=15;" vertex="1" parent="1">
          <mxGeometry x="1050" y="1970" width="120" height="60" as="geometry" />
        </mxCell>
        <mxCell id="gtqKSPDY2urYnu_UUiIA-157" style="edgeStyle=orthogonalEdgeStyle;rounded=0;orthogonalLoop=1;jettySize=auto;html=1;entryX=1;entryY=0.5;entryDx=0;entryDy=0;fontSize=15;" edge="1" parent="1" source="gtqKSPDY2urYnu_UUiIA-158" target="gtqKSPDY2urYnu_UUiIA-156">
          <mxGeometry relative="1" as="geometry">
            <Array as="points">
              <mxPoint x="1440" y="2000" />
            </Array>
          </mxGeometry>
        </mxCell>
        <mxCell id="gtqKSPDY2urYnu_UUiIA-167" value="&lt;font style=&quot;font-size: 15px;&quot;&gt;sparse adam&lt;/font&gt;" style="edgeLabel;html=1;align=center;verticalAlign=middle;resizable=0;points=[];" vertex="1" connectable="0" parent="gtqKSPDY2urYnu_UUiIA-157">
          <mxGeometry x="0.6625" y="-1" relative="1" as="geometry">
            <mxPoint x="1" as="offset" />
          </mxGeometry>
        </mxCell>
        <mxCell id="gtqKSPDY2urYnu_UUiIA-158" value="mask" style="rounded=1;whiteSpace=wrap;html=1;fontSize=15;" vertex="1" parent="1">
          <mxGeometry x="1380" y="1220" width="120" height="60" as="geometry" />
        </mxCell>
        <mxCell id="gtqKSPDY2urYnu_UUiIA-159" value="" style="edgeStyle=orthogonalEdgeStyle;rounded=0;orthogonalLoop=1;jettySize=auto;html=1;fontSize=15;" edge="1" parent="1" source="gtqKSPDY2urYnu_UUiIA-151" target="gtqKSPDY2urYnu_UUiIA-160">
          <mxGeometry relative="1" as="geometry">
            <mxPoint x="1110" y="1656" as="sourcePoint" />
            <mxPoint x="1110" y="1776" as="targetPoint" />
          </mxGeometry>
        </mxCell>
        <mxCell id="gtqKSPDY2urYnu_UUiIA-160" value="" style="shape=orEllipse;perimeter=ellipsePerimeter;whiteSpace=wrap;html=1;backgroundOutline=1;fontSize=15;" vertex="1" parent="1">
          <mxGeometry x="1095" y="1696" width="30" height="30" as="geometry" />
        </mxCell>
        <mxCell id="gtqKSPDY2urYnu_UUiIA-161" value="" style="edgeStyle=orthogonalEdgeStyle;rounded=0;orthogonalLoop=1;jettySize=auto;html=1;fontSize=15;" edge="1" parent="1" source="gtqKSPDY2urYnu_UUiIA-162" target="gtqKSPDY2urYnu_UUiIA-153">
          <mxGeometry relative="1" as="geometry" />
        </mxCell>
        <mxCell id="gtqKSPDY2urYnu_UUiIA-162" value="优化参数" style="rounded=1;whiteSpace=wrap;html=1;fontSize=15;" vertex="1" parent="1">
          <mxGeometry x="1050" y="1410" width="120" height="60" as="geometry" />
        </mxCell>
        <mxCell id="gtqKSPDY2urYnu_UUiIA-164" value="" style="edgeStyle=orthogonalEdgeStyle;rounded=0;orthogonalLoop=1;jettySize=auto;html=1;fontSize=15;" edge="1" parent="1" source="gtqKSPDY2urYnu_UUiIA-163" target="gtqKSPDY2urYnu_UUiIA-156">
          <mxGeometry relative="1" as="geometry" />
        </mxCell>
        <mxCell id="gtqKSPDY2urYnu_UUiIA-163" value="&lt;div&gt;稠密化&lt;/div&gt;&lt;div&gt;split&lt;/div&gt;&lt;div&gt;只剪枝新增的点&lt;/div&gt;" style="rounded=0;whiteSpace=wrap;html=1;fontSize=15;" vertex="1" parent="1">
          <mxGeometry x="1050" y="1866" width="120" height="60" as="geometry" />
        </mxCell>
        <mxCell id="gtqKSPDY2urYnu_UUiIA-165" value="" style="whiteSpace=wrap;html=1;aspect=fixed;" vertex="1" parent="1">
          <mxGeometry x="1680" y="-120" width="80" height="80" as="geometry" />
        </mxCell>
        <mxCell id="gtqKSPDY2urYnu_UUiIA-166" value="" style="whiteSpace=wrap;html=1;aspect=fixed;" vertex="1" parent="1">
          <mxGeometry x="-960" y="2220" width="80" height="80" as="geometry" />
        </mxCell>
        <mxCell id="gtqKSPDY2urYnu_UUiIA-170" value="" style="shape=image;verticalLabelPosition=bottom;labelBackgroundColor=default;verticalAlign=top;aspect=fixed;imageAspect=0;image=data:image/png,iVBORw0KGgoAAAANSUhEUgAAAgUAAABuCAIAAAA4UvfqAAAACXBIWXMAAA7EAAAOxAGVKw4bAAAgAElEQVR4nO3ddVgUWxsA8HNmtukQEWkRUASWUrGwEEUFC/OzsLuDK3brBbu91rUbFUXBQgWVFsRADBQJQaQWWHZmvj9YERC8KrEg7+95vue7rBszO7PnPec9hY2NjRAAAIB6j5D1AQAAAKgVIB4AAABAEA8AAABIQTwAAACAIB4AAACQgngAAAAAQTwAAAAgBfEAAAAAgngAAABACuIBAAAABPEAAACAFMQDAAAACOIBAAAAKYgHAAAAEMQDAAAAUhAPAAAAIIgHAAAApCAeAAAAQBAPAAAASEE8AAAAgCAeAAAAkIJ4AAAAAEE8AAAAIMWS9QGAmkfqdZsw2FqBxATGGBMERhhjhBBCGEn/++sDZVTwcEWY/Nhz3qdi8qvouAEA1QriQT2EG1i7DB3WiCx+gM5Nevn6k7iCZxNFcQMjRGCCIElMYJJkESTJ4fD48oqKchyyojDBdFWK8p/j+5mppjMBAFQhiAf1kCRszxqfjpv7NialxThm5z70Hu8dnvM75TbBVVTX1NY1MGzarIWldcuW1kaq3K/xASu0H+Ki63foHVWlJwBA3cfT7zZ57nhHoY4qmZ0QcfPUrl3no7/Qsj0mUk1NVbZHAGQgPyHkhXynHhaqRREBkyrmtqqxV++++43UDkMV5GZ++vj2ZUzo/YDLp46e8A3/IJbTbqKrwiUwJhtoi4POBidDQADgG7Jx3427B6VvnzZ7xa6zoWLhkAkjB3eQe3It+EOBTA8L4kH9JP4Y8YSw72WnwS6KCISiaSvtBL+AuNxK5nYYcWZibPD1MxeC01RaWBur8RR1Oc/O33xTQTYKgHqIbz/Hq0vEQo+L7yWIzkuJCU7Sd3VuZWsmCTzzOE2G2VWIB/WW5FNkRJ51zzaNudK+ZIFBS6OMgGtPM6vifmTyU57evnI7pXG7duZmqok+V59VNtAA8KcgjV1njujazlY+9lrw+wKEUEEqx/J/XY3UeIl+FyO+yO6XAuNN6zHJmxOeG+6mFacsCSX7mWvcTbhV9gF5ry94TlgTKLIZ0NeQ/Inng7KwWrclW92bl/jySIOB6z27N4Afbi0maD1r96xW/G8PEA16LF4/SP/bZczJzqYIgZ6lqYr0QopF+RKEMF/AL+f9ag7cVvUalXR5+aqrSdTXCgkWWE5YPcVGUHWfIEk4v3zdbfW+bta8qnvTWkvOYeWdyPDwoBvnd3v0ayb3S4Nzy0Wo6LWwNGxQIh5gtSZWVk3UKv/WoLpgvo6psKkm99s1wsp6LWyaNiwubamEkwsmeiycuPC4dKQFqWdqxMdM7quXH2Ta0ybj8UWKThv9NnZT/PmbWxKzue+I/W+hd7KqMGm31i051WLnEH1pRwLXaOTKOaFDVwVWVauVSfffvEanl5IGiRL+9OuWe3e5y6CoFTv+6tp28NImrGSXlUF5lXxLjEmi5O8DkwRBktDaqs0wgTFBlKxrEyRBskpetILEkGuJxX/xhf17G5Hi+NNHA7Nq9EjLknE8EL84v3bJfRZbvd2oKU66JKKzQo5uu/SqACGGYTAmSBaLy5dTUNVu3t6xg7EKiemsjEwZD8n60zDZwZs9/xHun9CcJx1spNN3mWfo4PnXUqvom6YSb+/bUzVvVetJsl6cX/9P93YedjyNLr1bewXdFlXq/YpmDJZ6hMC/OC0Q1DDMIIRLRXEC49IPlMRtNmJ2/8aZQRsW7IqU8dxNGceD/LfBl98ixLZtNh4hhBjRo1O7T/tll/PMbft7ex1f0ZlISfmtQfLgR/Ki9y7aafvvLFv5oluW1HD0WOH2dMqpP75CXx3o5IBrYbNs2/KVOvRoo3A7oLzb+dfgMn9APKgDSl2jokn/5T5Nte3cDWM1w70nzzr+SqZjTVFt6T8g9ayE6iRCTOGz0Ijc8p9DJflfDM6hUj8mQ/OgGohfHfX0up9Romu57awVo6uwa7k+YdLu+oXmMYhQbNu9nVLlim6MMS4TDyAY1HLSa8aUfqzcp3KNhq5f3TZu7dgZR55VriFZNWpDPMDKQpsmJEKIfhsanlZhcS/JysyWpCRXVRIDlEZ9OL981fXU4gYBlhNOWj3Rqgq7lusPJv2u32MRg7BCmx6VDgjfFSVlAwSojcpepHKuGqHeadFGt7QN4+eff5OPEOLaTVrkoi3TIrk2xAOepa0ZByNEfQoLeVMyQSFn5jKup/HXOiqhoCCflZSUB+miakJ/urF62bkESfFgI67xiNWz21SyPKuXmIzAa8E5DMKCVj06qFbmC8To+0QDBIRar2wUL6d5wDcbt2E8sXuy59UPEoQQQqSRfSc1iWy7R2tBPGA1sxXKYYQYUeTj2MIS/8Czcps20FLp6/fDlpcnEt8lQUa7+jCZD7w8/40rKI4ILN0ByxY5qteCu6SOYTKDrgVlMwgLWnZ3qOTgUPxdRRPUbricKF46hpNaPVd6TzJTt5y4/dyF8xcvXLh85cqNvUPlPryXbdZI9r90Ukdo3ZBEiCmMDY0s8WVg1U79OvGjw4pDRO7VOQ6jjn6AdFG1yo3Y9dfuJ6LiRhjZsLvnsn7adWJ8I6nRZtyms3fCI4JvHl/pZlJyZg+Wt5t+IjDIb0n7osHNWM581LZLQYGnFrZXqZbylckK8nuQSSPMs+7euTKzx37p6LCcQZfxK/ZevBUUFnLPd++c7vp8hSbt+/SybcT+/SOQNa6W/f8W7zzl/+BRWNC1I0sHNFfka7fq1aednmynbv2XH7UPWOaDp3bVZAk0DIyaGBk1MTIyNNDTaahAJrx5L9vyTebrm2JlKxsjEiFEJ75MQMrKKohkCxQ19Cx6jJvVVf752shv47cZioJcUfUreH5w8aaWRz3sFYtKMUKl3dyV/4uccPhVrV6CCCvZz9271iZqxwJ35LZtUe9Fqz5EDd7zsqg5iRU6DB3cQkUgUuIX3UMKHcdMcdDjY2bAUIe99y9Wx4Lc2cF+gRlOLmo8m+5dGp49kfS7P/TyAkK5jwlM3ZZ7z+uq8vbCpoXr770nzYYtXnboZCZLV0/+04lk59Whkt88Ahni6jkv/HtJP930GztWjgl4UWDQd+GKfceHF2rrqYlv5DrM96/s9I6aU/KaSSK9ewi9ZXgwFZF5POCZ25pzMEKINBi+9/bwUv9GxYX/oH+5duK2XXJte5/fyBBI3h4a1X9rdG1Ih1HvTi1Z1+rkqq5qRREBy9tMXjM+bOT2mNr76+Nbjffo9t572HKfZF7XviTGpK6BDomk8YBj0dqKj5HkReTTolPICb9+O6l9Dy0WKZDnY4Sqo6KR++h6YEavvmocy25dG536N7Gq7uRy7y1u06Gb985vKR9/ZIL7ppBsBiGUtGmxnvDMTEuCKXjz8k1tuLF+Edm41+o9q7tppFyeN2LxzXQaIfRxr+c2c59lDiSWvIl7XasrKGXUjSyfrOMBy9hWKE8gxOQ+3DHvQFQhwgSHq6Ci33bIBFdTUXjY67p2Gxc83Py/AccEv5zkZeiclNoz7ZpOvrpyWevmm3trSRfE5jVzXz3j8f/WP86ulU00rNRxqAt1caJvMo341u3s5DFT+Czm+dcKMdnUxkqZQFRCRKR0uDKddG2ph5nZgf81SEstMcq2UY+Vuz3topcOXBxQ6enZhKplSxM+RgizzZ0ctY8f+t3JHD9xLwmspmyc3VKVSTyxbndI8SWiEp/HZTOWavSb8Mgyp1OlZ1o92EYjVi/p1gh/9vP6+1b612tEf37xPJV2UEBpkRFlvlCs3GbenrXOaVuHTTtXZcG3AlhBUxN/Ssqq+JLWjfK/LBnHA7KxlU0jEiGm8Omt8w8efRtL+oCydl4kCSvRv0xw+FwqL096ATjmk45u6/pg5qAtkbWsFUxlfYyX7ZzzKsGk312/6HiLPf8z5BRFBLbekJXzHg5eeiejFhYfhIZiwd3jvs8lCMm1cu6oSjAFEdcCvqZoCA1LoTaJ6PTIsLhvP+C86PuPvgxq8Tzu2yQgUtu6pQ75+UZaQYXniBXa/HV8VdMzY8Yc+VGVm1BtM2+311CtzJRcnqYcq4VTV91/D1RXHZ1sMmze4CYcLIm9eCqsRBccqd28mRKBqNSIsLJVjao702pCaPaeM04owFSi3+nbJW45rNzMTJtATG5k6LPCMi9paNHSiJcTnfqDlXQrXW4QXGUdC4c+oye44f29J5+vjT+GypBtPMBK1rZNi2YehEWklwjphLKqMhV79dvkNEJ36J6THa/1HX86hUYIsZp1czZRyrpRS6s2fwQmJ2Tron3CA5PN+dJ1LLR6L57lH7rkXo6sD+07VNypRZ4IIYQV2zl3VCGY/FDfmylfbyiB0MaEhZj86NAnJSeAklwekRYe8f5bYVcYss6lnbdYlFdx+cez7tFdV+5pzo+GBRJqbefv/nuo3ocjU6aH9Tm+xUWVZerkZHB496tqKVd5toMHNediJIm7datkyY2VhNZNSMTkRITElik6q+pMi7AsZ5zdNbgx6xeqxAyd4Tuv3/J7FSUgyab9h7ZRwIhKuXPzScm0EM/cpgUbM4VPQyLLjsShXuwZ1uEIlSuquKSvVLmBVXpvujDH/MubOJG2vQ43+DfeotaTbTzgmduYczBC9OeIsFJ1EMzNe3vZ5/6nr7cix9xtkFHEgVvSBgTZ2MZaCyXfDZPtYoB/vPzYfX9ttjq6oI0SgRBiRM98LlY0f7x2wAptndooEEx+WMDd9K+/eXYzawseRpIXoZFZJcoB0tCiuSTE+2mp0oPKE/2wj4RlYitUpF+FRlS4SQSh1n7B3o1Dm2TfXDprU0gSh337U6/+DVlNu3Vrsu/Vy2q4X1lmndo1IBGiEoMfltqXlGdha87BjPhpSEQ551T5My0miTk8fay/wq/kSBkmN/VVxZ9P6nXsYEAiRGeGBsWUjGUsEzuhAoGoVyFh5YwBYApyfzhcs3LlBpNxeWbHywgRDQfv9TNX/o13KK027pcp03jAampjpUAgxOQ9CSvd+KPizy5eVfwXVu0y3FUhcGmAdOcgrGBh3ZTI8g95XstyRX8eydvTize0OrOyswqdeMVz1o7f22K5xvBsHOzkMFMYExhc3JIndSwt1UhEJUZElhzjQxq0b6sSsj/8l7rIiUZCYSP08Xbo+/ILFEK9vcfejYON6Ce7Zi/y+UAhlBd6NSC5zzAtskk3J5M9L2OrJiCUuAhYxahpAxIhJjcm4mXJ3wPLtKjojA8N+42sxn+daSnUl4TYL7/8ET/AaWKsX7SATXhMyRXeyMa21pokopIiwn+js0225Ubpa0A27rtuR9/XKyf2npqpaOnm+fd8z4N2+lNHeT3MkuUvTJbxgNSystEiEUKSF+GRP8hB8CxGTegg8psYlE02n3zsn5H6LBaHx8aU0/pAR/rLpTk9VwWLEUKIVLd0GTHcWaiOKZrDFkcdWr45IAnp9l6ybKiFFu/1EQ/Pq+xeU8Z20VNQ0tFmPT+6YvGxxKaDpoxp35Crqq+LYo6sWHH8qYhBCAksxqyZ7dRErTB487y9GV1njO+sq6CsIHq4b9Wma+9+vOYUt82Sa9v7qP36gPNaNL6oJFJD2MZUCWU+9Jqx3D+lth1dGaS+makCgejEyCfFTUvEMTIxIBGTHxf7qkQxwDLt2b1B0NagovsOK1mP9pzStYmG4P2pRR5Hn35Xy2S39vDd7KpCsDg8FpYM2hc0UPLu3zGDd5Qs38kGDn/tXT+wCfuDz/yZe6KlDSlx5NXr7weP1if1u3Y32xX75Nsx8HU6jJgyvK0GnU9lRZ6+pzZ5DLNx4Kqg7+4v5ocFBOZwWQghJHn9vNRyaKSOrY0miaikyIh3FCJ1es4fzT29+vxr+So402pHsjkkRohKehFXMrWDlW3sjEjE5ESEPpMgrNZx2lzd20uORLNNBnjMd22mqZhxdfW8nY+/ywb9uNyoHmWPgSn1CL/VuEmaV6bOfZgmQehz1Ill6y2E3s5DFo7w7b/9mQx/ZTKMB1jRytaYRAhRiZGRKRW1k7C89aRFw3Tf7JsbVYCo2J2D7XeyLGefPzI8c2u/UQeKRxhgReHYv73dxP/Onz86MoNCrGZTj60ZaHrnX71pvRLWuF9289k7x+tQp+iLmxZPjs3CRhOOn525YqPwQ9qDbQsnv8whmk07e2zOnCe3xh5PokmjYVNM/Oe4+3veXbPyVKuQ/Z7zx0Rny3Vde3n9przEwVue/OguKni8+X9uvze+KLn2jC+SwvJWk71X9lCJPzZj7rE4GS/F+xMwl8NBCNEZ6d+SCVigrEhihApzRSWaoPJtBvUmfOcGiRBCCKv38JiscW72aDz9+q4JQ2xPewaWvcSFD9d2a72W12HljW2O0Su6T71YtsyRBgMjbuZDr+mrbn4LR0gSc+3GmxHjjUgdRyfzbU8iChFCCCvaTNy+yS13z8SJx17mKdp7ntwxSOv9vsyfqbgypUobOiM5TcwgNp2eWnJsNqnj4NCURIwoOvyZBJF6XQf3bnB6D1MFZ1oTCtJSMmmkQaellswKYfUOnS24GEmeR0TnI6zSwW2gzuMLlHzr+QuE9z3GHnc7cXL0cIejIT5lU1wVlxsyQhpYW2kYa66fFTXy76AsBjFZDwMjC5y76Le11931TIZjg2U4P5lrYWvOxQjR2VHhFXS08XW7zNq+dZQxHXbOp3jkKdnYxrox+hgR9rH4RUTDnss2TzEMXvPXocgMiuA3tOw9tD16GJzQoFtPwc0rb7iNdVQIJidwy/ITsVk0QkgsFiOWpsLTbSvPvcxhEELiQjFDyMvJYYTI5r3aJfne+tJIpzHJpF9dufBwdBaFmNx3bz4R+t26Gv/HVF1J1sf4+Fe/LP51cm4tm2rB0u23ZtMY06yAlVO9HlXJpsrVjUpM+FDIIELLQJcjfYjU7e5kzkYI8TQbKX+92wXW42fYP91/tKh7mTRw7Uee3f0ot4mdtQqd8LbCDAnLxNZSiY4LCy876JZQa++xd/1AI17Bq5Pz5x2LK13Fp15eu/pCwiBSy9FJyEUIIUK92+IN44xjdyw/8VKEEJMV9ehZAZ31JDK+nI8u54sv1WLIC78fLmIQoaZRvK4Iod5+ofdESw5GVMKLV/mI1HNy0g298SBLv7JnWkMKY+4/zKARoa5RvPgTVrSetGluWwWMqLS4uHSaaNCpu0XcjVsf1ZwGawfs9P/UwNZOB6W+fSeq4JDLKTdqVKkGQm3dL7PG2wdYoGdrb6zGlVNt0cehqJsyk6Xd0dGxuKZPsNhsgbK2sbmwpb2tkSob01+unfYrXuYaK1hYGxNZN0K/JUvZFsMndVSjM8xGbzowAmFUkPYq/Oay8def5QiStq7/ksq2sm3BKQg9dUI6GQnxTM0MCVHQsTMvxdL3bN7CgMgJiEukECI++q7f/a5AxdVan8i4HBgtfQ1bS1uTwAV8AYFQbavHVwOs1m7Bdo/2nMhtkz19ZfQL+mVM2vXD54fbDtFzmTcvetWRR1/U249bNFEx8OqTDs7mNqMXDn67494nJQvXaTO6Pl8/wlc6OoFOD9jgnZLJEU501iuM3Oj7roKzJRpZWWmhj3fKFiiEZv816wcZ8ehPt1dP9wr6vj5Nvb3mGz2xmRWnYZeeNltCghibsdO7qWf7rfl6V7NMhM254qdhMb+z/j2TdnXHvj7C6ZaDp/cN8wrM0rRznTB9gNqDE9cFI5001Q1NDS3tpw/iX5oX8JniVO5Ma47o3p7tgW09O7hMHnlv9aWPShbOo2eOMH5x+hJ/uKuxvJ5xU1OtEaMMA70XfKDF9M61WUnYcKyLBfl6/5XoskOppMopNxAiDfsundXlx9ldJj/y8OL9Id8l1v5r3fFStwFTOulHJZxcMDFViKNv1vf9MgXtZ2xd5yhfYq8gUq/nwvU9K34FlXjlZOC3Thauua05t+BJWHRx+oJsZGmtRYgfbhs9+WKZnrOc9y9yEMvSTqhEvwoJ/1rHZZu1shJQsaER0k4LrNimkw03J+hOWD5CiE6Pi0WI39nWjJ33KDRa+hMljawtFDAV9+Zn+tfqPH7z0V7rBzROPDNz9sHY2jsp+TtM9oMNY8a+GTumr8O8fX3kmcz4+8dmTzgYKjEOGus+oMu4LWfmsrJe3Dm+dOQ/wcXZFSbz3ctMJOjg0l0z/9Ee/4o22MCKQlsTskyBghBCiJCI8/I+Pf1ntufF9+UmfOgPPjuPdPdyb9Ggx0jnXWHvnRy1iLzbgV/LGFLX2kaTiT8XVV5qhinbf8AwTJnSpeDZP1PHpE2ZMWraP35LWNnx9894j9p34x3ZPKlgkXuXZUdaxt/cMX9neB5CeZU805pDJZyfNzJr3KyxQ7f5zOTnv390ef/ElT6xBXqv8pdMcZ59ePeHBwfnL7vzhWFQ4ssExLYY18uYid1ypcIhvd+XGwgh6q3fppVBnB8W7Iwk53O5o5b+KyX83cUs+QDsl1kk9/ps++uVeD1pbCdUpuPDwrMYhLCKsbVaUhRHQQ4zX94nlt+4JRvb2mihj7eLB5mRhrbWaszb82HSJC9W7tC9tVxm4LXgHEJFT4/48DqdYjWzFspJYkO+hgxSr21rbSI/MuBuhT0dfwxSy3nVlqlW4sDl0zbcq46VfaoVlRZ+cl34yXWlH33u4z3f5wcLxmBFhz6dVLLv+dxMJ9QMdKh3b78b+cc1t7PgimOKChRSo4UFLz4iIQ8hRH+8MK3LhR8eFJP5ePPQ9puLPkq1n44yQT2LipbOm8LK1nZG+NPZqA+0fGND+c+vk/8rAjNlu5iZ7BcX102+WOakY08vGnZ6URWeac3KexewdWbA1tIPvvFdO9p3bdmn8qxde+iIw9ddfU8r6Rpykl9/KtstUk65Ef4qm6HzMlJ/+8wqDAjMd0EclZ/4K1KL9suU/fqmv4bQFAobo5TIyEQKIUHLCQt7aVJUSlJyIcJEqf1JyUadRvYyYhX92poSmeHFg8yIhrZ2+uhT6GNptw1WdXBuzft8xzcoh2c/dXl/fQIhUsfKqiH6GBUtDRkcM5eeJszrUzvOV/dEeFnDSi1nb13iKP90z0yPCwn1ZTwvVu/q2lYu/dble9mC9jMW9dYiEEKIVLfo3qebWVGKlzSysVSi48OjshiEVbvOnNNe8fe+HSYvO6eQkaQmp369/9o6mLMLYqOe01qunjPs+aWKGQaVbQ2g79oHtfVMa4y8vatjg/yHPv4pLOHYZUOLuvgE+u36uLTWLcrHl1duVLKm88N0EVOmk+f7Rl3x28B+mZVBkhjRqckpDKtR17ljBSd2BomYzzdPB6Sp2HexLVrLmBDoOYzzXu9KJCRRCPHMbVtw8iIeRkm/ayxv3cqUzI14+FSaaCQaG+pxJDGPI5HpsP81vHEqshBhJStbI5JoKLTWZiFEKNtNXTSAf2fdnO2/Nlq97uEaDdu4cbjhJ59Fs3ZHVdQx9wciG+vrcfPD7oWRFqPc2OdOPZcghBS6LtizYfnfexf3UMEIIYJAiEpNSqV5Bn09+qfvPvS0gkz1f8kP9X/whdQ1MmAjRKq1nrpuuh2fyUhKluj3dMi6cbdMypMpLxX9+1emRs+0hpBqBnqKVMy94HxDt+F6Af8+zEOINB7tvXXVqh1bxzQjUfnlxu9/HotECLPJH07IZko3HxiGpsupSta2/TJJNTVVWR/Dr2CyEpI4Zk6url0chKT/+r9vfJQghPLfBj9K0XaeNGWws5Ozq0uX5ijin3U7/N8VIESotxww0OTZvs1+8UVlOdnQboCrQfjeLTelMwmY9CSRXktHx+4dm3w8sOJQTC6D+C2Hz+mpHXrcV33orKEuA3qbf7m0euGmmx9q98+issiGjst2L+vMDl4/yeNyYhVWCQlVS2dnA9HLD7VzMTyEEP05VWxg382xa1utuD3rzxXdKgy7UctOlipsfsbj0/c/Umlv05SFzv1cO7c1zT6zZkdQ+m+3FPPjHz8RC4dOdXfp6dxGOWSzx+FEg84uLt3M8y96/xNZKn1DqNoM6KMScjigeAwiqePwP/u8q2dC0n7ry6zZM60ZTE5ybkO7Lo6OHUwyTqw+GF00Z1Le2KGdHk8OxV/wjc0rv9z4ReyWc07uXjpuzMiuhnyC1GrTz61f30E9VJ9delxmMXOBWa+hBq+OXyku4gn1lgOceQ+OBpZKLxDqnZZscy/YNumvSwniov0yF9omP3ghwxlp2NjYSGYfXluxhHMuHxqSsrG3+7HfXrW+rsEKNtP37nI3eHt46thNoVV6R/Jt5p/cpneg91Sf9NoaDyrGEs7e3vnWVG8ZLZtIGo0/echgZ2eP218T4uxWntfmpk8evKuq176Q8ZlWB6zsunkZWjrLp2bnUGD1QXt8O/v1mHj+a+8baTr15Daljc6rH3+rUvLNJuzw1Dk1Z+l16Sgu0mz6iTGvxsy+ml2TB1uarNe7ro1IbRvrRuijf8yn+hIMEMdw4Dpvd+Mv1xbN2FK1wQAJhGMXuqk+WnK7zvVMI4QQqWNn8ilqr+yKSIamabrUN0fTNCWp+jtT5mdaDeRtbHkxB2XQKqVohqZKXiOaoqmS23lJ98sk3k/cfm4iQgiTbLZART3/3DjZZo0gHnwHq7Zq3ZQU3Xoiw9F2NYpo0MVz+4I2rLBN45f5Ven+1Fiu2dC/N402EfntvCfTZVl+E6HhNKH1sxP/ym5BV0YkEhWKC0t8dwxVWCgWV/VCC7I/06rHbzF8EPeqZ83P+mfyRCKqsLBkh7WksLBA/K1tIN0vk0QGRholXie+J+v9MiFfVAppNvn4npGmijwSSURZnwKWD/jL/0/6iXwPywun7Ns9pmnSyemjN5Qzl+r331iuqcvsNQv6NVNAqWen9FweVPe64tnmYz1tHq0/FC3LOhtHWYWTnZHzrVAjBGqKdPqXKh2YWCvOtGoR6j3njhMfXu8viwHipIKafH56Zon+Rr6yKs78XOuHaEA8KI0g2ZiRUOVAavIAAApzSURBVHRtv25VhK3Xf9Nhz/bUrSUj5/tU1cxIQqDb2nXkOPe+NhocjBD18eg413UhdWlvQwDqJ8gXlUZTf/YYopKwavuF2xZ24ETtGL+4ksEAswRqjQ2amjS3tG3drmMbC01B8WQQKsHvSgQEAwDqAIgH9RXf1N1rjZsBuyBBYjpqmdd/TXHCGCOEiyCMCYIgWRwuX05RSVlZVU1dRZ5LljsaWxLn6/usnnTEAFDHQTyol8hG3Zdumm6jSCDE17Vz1K2uz2HE0Zevvq4PKz4B8Aeoc/OTQeWRRiM3rHTWKr9CX5WY/LArfn/6Ch8A/DGgP7mewgRJEASBMSYwRlj6v2//XMHqLKXSStI/Sv1fmT9oioJwAEAdAfmieoqhKYqmIJMDACgG+SIAAAAI4gEAAAApiAcAAAAQxAMAAABSEA8AAAAgiAcAAACkYLxpfcZpZD9wlFtHK105UcTBeWtv1LINH7Bih1lbp7TkZL+Pvnfl+Om77+reEqkA1CUwH63eIhq5ep1YbvNm/8K/9gcn5Ze3fBHmN7J27Nenu4Ntc10VliQvO+nJ1d1ee2+lag9cM57l5XGsBuYeEwLt1sMWr5lk/mbziLFHXsGMCQCqDeSL6iss36pbO7Xce4f3BpUbDHjaHafuvnB5+5hmGTe3TO/vYN+uXac+047lu23wWr1l9wKTlJiaWVieFn0IOrjzcqKc0MlBh6yJTwSgvoJ8Ub3FYbMRU5gvLicWYBW7KVu93U1SLiwatPF6QvHWKwXJj/d7ntp6Zbl61oVHL2pu1VJGXCBGmMPh1NgnAlAfQTz4A/G12/Qf1q+LlZ6qgEMwNEVLKElh0qVlM/4tuQc7JgiEaPr7BAy/ufvWLWMssq7MmrD6VnqZRgDzOejBs0KbL4+eVOkGXf+BpmnpAQMAqg3Egz8M36j/kuUuhTf+2TXLK/7LD6rwmCAIjL7f9UBgPXnNJKEg5fz8DbfLBgOEEKJF2bkFMQ9DanQbUZpmGERUsMYeAKBqQDyoY/g6HUZMGd5Wg86nsiJP31ObPIbZOHBVUAFCCCGikcuKZXZ3PMb5Jvz3jmQEiRHDlNkHh9QfOGOIIUsccWx/UHb5O+TQScGHjt9Nr3j7HKxg0nPcNPderQ1VeSXX1KY/X5jSffH9gnJfRKq3cp83sasOyqe47C+BW5fseZjx7SMYhkEQDwCoZhAP6hCsaDNx+ya33D0TJx57mado73lyxyCt9/syJV//ucPkfqlbJv9MMEAIK6uoECgrM7NkwU4269PPnIfEwVf9PlTUW5wbfmxvxW9LanVbumNVNzLsytldV7CeQz9XK4W4S7t9nouZwuSQqAqOjNti4o51tn4TRi14ma/SxuPA39P7XAs5+O5rLovJzcqmka6yAgshGGAEQHWBeFBnEOrdFm8YZxy7us+JlyKEUFbUo2cFbvJPIuOlRSTPtovm/QPhop94K3m9zhP/GqL59vxfZ+JKFLCElrWtNomoFyEhn3+8fWYFuGbj/17tJDo0fvzOqFwGIXQ2XsFvTYucqBNHw36Qu2Jb93UzzvXb8C4PIZZBa3vVxLuxaSWOi06+svOA85YRCz2eLPS+8iILYgIA1QHiQV3Bsxk7vZt6tt8av+SimjvLRNicK34aFiNNwJAN9HT1HedutSq3JKc/39my7Ew8hViWE/Z5uVuqZd7zcp9wLFZU8tmEWgN1AjGid68+VlDkYpUW7XSSHjwpr2cBEY1cZ44y/XxxwoGiYIAQysvOkWBlNeX/7gkmtIdsv2AeGhJy/+qEbt4fS2eVmOzw7ePdU1d5Lz7tP+v5qb9Gewf9RNgDAPwSiAd1BNvCyVGLyLsdGCItCEldaxtNJv5c1Bdp0cvQVOFr380rr2eVFxAYcVZRjVsStWe000nj3nPW/bV7p9LsaTtDv/UTMKLcXIQYsaiggnBAGg2Y2y9lzv0n5f0jodmlhy03+eT1yOJ5xKRW0yYKTFpKueHjm8KQwxsvWS7qbWTZsY+lQ+8+rRcPmuNbanoDz3Tk1p3TtMM3jRx9KjKt5ka6AlCfwAi+ugEraOsoE9SrqGhpzRsrW9sZ4U+RUR9o+caGmnyE6NQXr9VNdXNTypWakfetfKUyX15cvfp8rsXYWf11S8zxot5FRKZRWEFbW7m8rltSy2VS68jDNyroSyb1DfXIgqcRzwu/PkJotGlnglPu3X3+gxKcVDPr6KASsmxA+3bdB0xYfTG+UK29oy2/1Nmr95g6pSURsHHpMQgGAFQbiAd1A5OXnVPISFKTU4tq7li1rYM5uyA26jmt5eo5w56PERJHXAo0HD7U5OdmbRUmfUihCQ1NjZIlf0HoiWMx+WyrAYOa88o8n6XZacEKx+i/90SWmngg0G/Xx6W1Lh8hROfkZNOizOzicMBrMWSgMCdw18GwUi/BisZd+vawbshCCCFSb/jmA9u8VgxtRlI5yc+Dzh3yeytOeptQ6hWEskYDDpORmFyTcx4AqHcgHtQR+aH+D76QukYGbIRItdZT10234zMZSckS/Z4OWTfuZjAIIXHM/vWh7Vcu7qHzMyFBIqGlkxBKoF79u2jZ1WTDsVt3ze0tbCQgEUJsJcM2QxbvWtv9tdf8Q89KrSlHGo/23rpq1Y6tY5qRiHp27epLgVUbMwFCCMubDlqzxiXn0NzFl5NKZYvYLafv2LRi7Z51A7UJhBBXTkC/8dl66hmFEGI36jiyl3Lg7hNPSyesMMYI0d9PlgAAVCHoP6gjmIzrK2drLZm/7nirLFHWS5+/h4xvvXTtkKX7mz45vfrA19FAuRE7p29wX7npQEf/o6evh7xMzhIVFFLlFqPSmQff5YUk7309hr66N9K9/xjv855y4s/p6ckvH/ufWTH5wfvv1hel02Mj3mVpNtQwN1PGz9Kf/TNzAW+Rx+ET4gKSJXrhv27YsfuJZecb0IkxUUnO9kpNLEzZxz8UxB1duUt35thNB4flUSSXSQnaMn51QNmlkTDGGDFM7Vp+FYA/Daxv+gfCfB373q7d21oaNpDnskmMMUZU8uWl0w+/+FbtxuqD9l1bZOgz3mnVw8Ifvt1/fpyy6+ZlaOksny8/X38n9dx3jo6ftuzuz0yVQKTJlFOnx9K73IbshgVOAag20D74AzF574NObw86/R/PoiiEMFH5JUPlbWx5MQcrmM1cPqxqY5n35PJPxyGSIBAqpKF9AEB1gv6D+orJF+VRmC8nqGSVgN9i+CDu1Utvf6HejhXbjHPOOB+Q9rMhhJCTFyAmT5QHHQgAVCOIB/WW6KGPfzK3w/jZ3Zsq/XYjgVDv7Kx0xuty6i9U3Um9Hl1y9m2+V+48ie+frWDkNHuOS4NPAWf8a2bHBQDqK+g/qM9YDWz6/G9AZ5sm6ijm4KxV12rbfpkKbWdunmzLznoTfvPc0QsRadB3AEB1gngAAAAAQb4IAACAFMQDAAAACOIBAAAAKYgHAAAAEMQDAAAAUhAPAAAAIIgHAAAApCAeAAAAQBAPAAAASEE8AAAAgCAeAAAAkIJ4AAAAAEE8AAAAIAXxAAAAAIJ4AAAAQAriAQAAAIQQ+j8/tnNn4F/sxQAAAABJRU5ErkJggg==;" vertex="1" parent="1">
          <mxGeometry y="1169" width="517" height="110" as="geometry" />
        </mxCell>
        <mxCell id="gtqKSPDY2urYnu_UUiIA-171" value="" style="shape=image;verticalLabelPosition=bottom;labelBackgroundColor=default;verticalAlign=top;aspect=fixed;imageAspect=0;image=data:image/png,iVBORw0KGgoAAAANSUhEUgAAAZYAAABaCAIAAAAUx+e6AAAACXBIWXMAAA7EAAAOxAGVKw4bAAAbDElEQVR4nO3deVxN6R8H8O9zzl3aFyVSVEpR2osiIyRkGHsxY0lCxr43MiFLZZmxjjAIYxjG3thnqWy/lLSglBaltKlou/eec35/lNx7u6Vyr7pez/u/zr3Vee7znM95nuec81xkamoCGIZh8olo6x3AMAxrPRxhGIbJMRxhGIbJMRxhGIbJMRxhGIbJMRxhGIbJMRxhGIbJMRxhGIbJMRxhGIbJMRxhGIbJMRxhGIbJMRxhGIbJMRxhGIbJMRxhGIbJMRxhGIbJMRxhGIbJMRxhGIbJMRxhGIbJMRxhGIbJMRxhGIbJMRxhGIbJMRxhGIbJMRxhGIbJMRxhGIbJMVZb7wCGYfIIqfYas2jptEHmumrMm/SY68f3HvgrrZL57PuBe2EYhrUYx3Tarq1uubumu7u4jlp2vsJu+pbwX3wtFD//nuAIwzCshZCm+7yp1IlN4YnlFFOd/+DQmj0PqlStfZeN1fvsiYIjDMOwFmL1dLDWcvh+i29vLgAA0AXRkU8FSMHKpa86+sz7giPsS0Ro918a/teu0Z3bR/UiLfcfd800Jz9sIY0mhQQM79g+dg8To+S0ZP+SvkJjQqLjiLUhnoYfKpB+V17BsNTNrHoo1yYWU1VVzQAiFJQU6iIMqX214cqfQR5d2TLeWzyd/8VBmi6r9of2e+w//XI+3dY7AwAAhKZBb2uD/0gAqm4L0jK2tS3XQlDYxruGNYQUu/a06fGCi6CqbnIeaRj0ttfuREBmXQVSSWELFqaavvvf7ZLat7BNzIxJoAqfpxbXtTmmPCokoPehPfs3odk/ROQKZLa7+Dz4hWF3nxISMp45HbDtv5LPf3WoMQiRhPAAA5EEQZJkE7+BtR1EIEQQwtFAkATJEq4upiIj+sr1+ILaZEJqX01w70RUPD5xKpYn9J74sNX7XrkE/jTfVkl2e4sj7IvCNvluwyKH0jPBBx5XtfW+CEEIIZFDAhCBEPrcsyZY8yAGAImccgiERDeIvF3VwW/xMPXX14JWn8igRF6isk5vOphiMGPz0v5qsqptHGFfEEJ39DIfK/7dQ0cetacAq4PEfsAR1q6J1A5CSKwC65G6w9dtHse+vX5WwNVXVIOXqcwzv1wp1B2zwrtu5l/qcIR9ObjWU3yclYtvnbpe0D7mwOohhJBYhOH8arfqaosR3Sb5rSo2fttXGkf9MGP1pSyexLfAuwd/XHhBGE/ycdeSSZ3jCPtiKPefNEof8m9ejqls611pADU4BsQzDWtfxKtHUn2xuo7ZuOGrhLU+G2/nCQCQxpDlSwdpNHgblRYR8ZRS7e81upssZj9xhH0pVPt5fKUBpf+LTqpp611pAEHDcQjOsHZM/JQjoROG1J2XbR6fu8UvNLruIiTXYoCzMq+i4UUk6uW9e5k0x8JtkL4MMgzfVCE9HG3zvs52pjqsysLMJw//l/Cq0QfGEEkiiqKBIEmgKZoR2kxzOvXsZaitoaahoamhoVZyJzwiRaBmYNvXrqe+lgpRkZ0QHRn78l2DkSLX2sVRBWoiY+LbX4JBw4MAjyPbMSThlCN2wuGYTAkN9TKqzlrxaz+obbpc1Y5aOWGHG06HAVBpMXFvfIx7uvTveCxL2nf6yCjCSJ1+M/2XfjvQmPvm6a396zefSamfX0YqjgsObvfSvLVqUlBUOQNI2XJ68KbZ1lWX1swNiXrTfm4EaAmFbu7zN6z2tOXm3I9KKNEcPWd1IC/xdNDKHbdeCUB15J5/NruKTGbyogPd/c4T4/ddC+zH+bC55saSgWf67gnz0qnrHfNiVN+YLfaZ0JtKe5xaiLra9TXTWvEm8cwW/x1Xs4WzijS2s9Ig6IyU5xLOgtKFVIxdx3uNc+9v00NfFVUUZyVGXQ4P+/1OXiNzISA+ld8IBZOxazYuGtqDXZJ0fX/Q1ktpgs7OXr7ek9zt9Vhl6fcvHdoZdj2zHV6maJxcl6jJXhjH2WdeX00WAmNVoa1M+b2s1xIDiv8iJV2A+phZ9eKezJdyiWURYUjdefmBLfaP966aCRN3rxm1ZmPOY6+w1Np4RqpfTfHqralUqa5IMQAAqq4+3w80UETMhCkDD0RfaEc3MzUX18Rz20F/F42ci8umbLiVTwFwu3vtOOo/ZWsY8psSer8y7tCq5RdJBcNhs/yGGnIQlXNr7/EH7xgG3TsTkd5njDFJl6dHXb5690nWs4Tq1EezPC/qOs/ZtMhVm+Q4zljMObnOa+mt7CoGgFC3m7dnz2wbz+DDWuS0VVc+XAFSNu7RhWD4WS9eSjoLSg3Zsd+84PUz7blPz+0PmROZ/Jrp4jxj7dol+1ydt/ouOvG8BgCQlpP3d1qReyLShHZFUoaJbFO0nbdtvua5xdPeTt2/fkLgdqT1n9Fk96rLewOnBhZrDVmyeUVoeC/N6d+fypTdTZLS9YWVSKS2eP/597fxb/4vM6WZGaV03w4mZvrkP8+l20RlEGGKtrP93V/u+Hb9xXwFt7EkQmQ3o64k1EUYx8rJVhGBICU+uTaN38Vd/ydvwIguLFJJRREByCTCSMtFZ496G7S8tEzx+YUe6+9UN/4OrsWs4BUuHaHgz+CQW/m1hax5cWbHybFO83tNWDjhVMyRrPjbeQAAkS/Y+of9zLka6oLcfD4A5D6Kz+WNJK+u8gn6+3V9xWakFmXkXE343nUwSeWcWzlv253yug+FLov7JWC/45ml9p2G/PDj2Nh5Z/NqT3pk5256bEQXFRQ00RX6VOxuo7cc+HFY57J/N05dfjarthNYdCV0bTfrU3OdFm+Yev+7Q2kUoTNkpq9d1I2P1KPYMKWD24zRNad9fovP7O5UTLtrGY+fS59a/m1IVDEFAJm/7zs/1tWv34KFw24si5CLs9yXVqJPHPjTRQVFNGh36tKJgPYeYUjddcpo6sLciHwaFO1cHFUQw3+a9Oz9iYbsYW+rQQCV/Si+bkxM510N9LewOPxdx6KCN/W9UEJ3RND+AMfEwElrb5V+egVTyb/6TYxQafnFC7qyMLuJ/AKkMcTHy4yL6OI7N4SvBFKZkdHZfubdzYe46h0Lz66ttOrkX9f9OiB8nqWDX6BXlO/vFYNW+NmlHvAOFsqvOgxFAQDQhVlZ70SKT2X9eexvH9uRGmpOUz3Nz/+cRAEAEB20NREwpcVS+KwaKaiKw6KdAcP0iIKLQQF/ZgkNYvnPr99M9TUz7zV+ou2xLXHabsMt0v/e+EpsQNHk5BehPXiUY9bVbRkUKJmY6pHA1Dzetzi09mgHAKBLit9QgFT7DrRTiLhVBdJvIVLW3ktEqutq8/NfN768l5TnKunSklIaCOWOWsoIpFs4qUcYoaNW89/JiGcCAOW+Hq4dCKbm0dVbdZ0FIHSsbfRJoIvjY4WyuCox+kGpZ+9nzz8cGKS+XZ+uZMmNoprGP2TVfj+c3NjjjI/PsYyP5jr9Lv9F2qeXrgFF+0FOqghA8CIljS/8AvUyI1sA3TlGpt1JyH6/fzVPjwYecDmx0NphQdCKTmXDBrzcM/XIUwkZSVE000jJK2PuxNd4uCqS+s5O3XYnZVAAgJSVlRFATY2sOmFcK9813xlzgZ908lBUmeieUbkZ2TzGXEnH2rqLQsXI8T3ijq982aI5W6SjVH7j3N+vaGD3tLVUQECl/vNvjtD4iuioo00CIK62thoBVbQMWoh0yahEHEu/E7vd7iz23BnfytEnqajd3XbQ+Fmzv369abD/vzLstItgaqprGACCq6Qg7ZGW1COMen56TQAAAFJz8XDVJJjqhxG36+f4lGzszVjAVCc+TBCZjOYqEEVxj4TmcfgxwaNddvAqqxpvegp2I4Z3U05+V9aG93GSnQ27KSIAYNmtuBqzTOQ1gmQDIK6KCgfgQ0vhpR4N3NPvtxWO1t9OL/1vw5TfX0hui0xjCQZMZW5OCQ16JKHXTY+ADAoACBabQMDw+XzJv8WyXnT2Fy89VgvOrQz9JmLFuPVRVbVd62njDVmI4SVdu57doEoEpcVlNCghLR3TYb7juRErrxW1rJFSyceWJwMAkAY2NtokUC9j43KFZ9JUTEz1CACGrqysqqtuqbaQT/x8PleJWL3cPczUy2+0rhtDGkw/eMRbv/hFFtPDviPrr9b8jVbj8/kAAGy21BeukNlNFUi1/7B+qgRTHXvrv+L3nzi7l52VAgJBysP4cqFaILtbmQtidiSLHMxUVWWTly5YZg42anTaw0dlbTmK4HA5CAAY3r3tk0Pv8hu8zgjK89+JbhJk/Lbx0IizCy1ZCh11NTmQK7mYjZeKqWsOiMV+f8zRfJ6AAS6bzZZ8EAqSwhfOuqnaklsZGKaiIK1u1xTsXZ3VCADB88joPAl5wKvh11b59wuVHm6dGNvaa05I3dq2Owl06aOYZ8KNgdPbtjcXAVCvnqdX1G+VYgv5xM+ncVItEalnb9cF8v+LzWlVn5LKCp85OByANJt39rSpbmv+hLCWLTzNqs0ugUDq1y5kFmEK9gMdlRHDT4q8V3+jBNnV2lqLBCr3UbzwgUAaDeivGXMorkUNn9C1sdGFV/88lO0luI+gCwsKKKYHiUBQlpeR+bZZv6TQc5ibCVVTw1Lo5b3e7+7UHXEtu52eVO+gjurnFwBql2uqYoDL5XIa+R2qNPtJaYv+i/A/1O1uoIQAqKLHjyV93AxFCQCAUOmqcmf11hvFzTynNHwb19LOgoOYmoQY0U66ad8+mgQAlXcnOrXZ1d2iFvJJn08TpFkipGpl14Movykahp+LWG1xTKft2ton0n+6exKvY59pm0L9toTb6s2eeyBZ4mGMuApcBMBUVVRJu8chqwgjDS16qhJA58YnFNanFcfEzIgEpvr5kzShSmD1HDm8491dd2s7K0jdzjvgezdjHaWXp9f4n0hucHSznfwjfv5Gk2BxFFhI4Hnw7iRB1nEfr71PmmoJpOXCM0dnGrbmiuSFhR7rGr0iyZQ+jEkR9LNks3S76pLwthmtUcnOb+MM5fOLvNOnha3pbzxt3YLob0P/97b5FUt2s+ipSgDQ5Y8eptZ9jnRx4RsGNNU7NHy8QxpYtb07Kitd8pySgKIAgKmI3Ln5WqHkUVuj42IhpImtjRoBVMrDeOGOE2nmOlCfBKYq8fQf8XwZtRDZkE6JSPN5v/063ZDF4iiwETUsJHIoXXpp2ciN92Q4kyVeXYzIlrqFp6eFJ5bTAPkPDq3ZY3dxrZPvsrERs07mSmgBhIamOgF0RXGJ1O9blFWEIS6HAwD0m+IPF4yRkoYaiQD4FZVCIy6Vfp6jiIjldysBAJD2CP95On8u9UYLr/8yZ7LDHwGR4tXEv7/F3WmLwldBN3YPTdwwfP6F5kwMUMlH5k38q3VXJLOauiJJZV88Fe1tMUit+4CBBgdTX4gcJWyL+X/s0t7usS76/RkYqfVdtG4ifXLez3efVGdsHXBqvauh5/oldyYHRUssBmIRpPhdhb1GjTBhAVA5EWfvvW/sdMGr1xRjotFJhwMg9XM0lZuWXsGYqjE1VTwJe4lUO3dSAQAgairfNbeBMg0PE6KTta0eCVRecrLw9Uxl54kjDUmmJuXk1tNZFNL2kEkLkQkplYh6ss/LeR/Leum5Y1PLdo2bcbjhdORnVrvwtP0W36TZYUk17xeedra3cumr/vs5CfenI20dbQLo3GxJ+fZpZPWMJJWbncNngOhi1O392IbsNnyYJRsAFDrrarz/v0p2sxc5Jx86UdvNJo2+GUee3f+gwtjRTpPOzmx0CMAyc7BWp5/HxjW390K/zX+R1govXpU13Vzowoht2yNLGLb59FWexsK34LMMxi0YiyIuPKwfQZA6bqsCJ6KzG8PiKwHovCsbQm8XMWTXcWtXD5H8FD9p7uk7UEuokhQtvFdN7k4y/Kyzmw/E1Ycr8zYt9RWN2Abdu8riSdqKuxev5VPAMrUR/4oabhcX312/bXRV5DGAWJpa6gQgDZO+Nnpi75NQTQ36ZcrWdj1ZAESHXma674uMNJwWrPymMxTf3bZq/+MqGbYQWZBmiUg9ezs9ePUoVsKKNq3Swme8RLphzVh4WvR/aRgaaRJ0Zdpzae39B7LqhTFF18PPTXWYbDB6xYrEjccelGoP8F0zVy3yr4SvPCztvVd7Ze6NKlS3+mbBIrdnIdMi6laHoYtvhe54XcaxmethwI/fGpHVSHkJXVvbLvDqX6lV56egcs6v/l4peMeygcvDj1mcOHktJr2EUjcZOHXON5zj83+Jr1E1cHToqadn5uwxZlhvLaLEzM5ULT6hnCE0OnPfFvEYbYXOHoE7q7v9eT+zqDAtNi77w5woXUbZrz28vfuuX68/zqN1nbyWrJxqqViVfmH94uA7wkMTKi3haQVjoGfWQxmllEv9qK24v2f9H3Y/e41dG5QZtO/q01JSU8/MYeBwj5ED9LLPbf0uoHDciSPTDXrYO5ula83fMrlw/bjHuS28ds42t7dSRIygvNpk9vr5L4NOPQOjgdOWLfqmU+b5H5aERGTx5K2FSLNESNXKzpQov1E/dwAAQHYfG7hkiFaT/RCmOj587aGGq5d8LMBEKk/8+ngzFp4WwTI2M2YxvKTYROk/wSuz6Xzm7Z1Qn1kZs3zGDlxxcIwKU5Ye/dvSOUceCkzvzpo5YYjvzjPLWeUp/54MnP7rvaL3pWbKslLLQOmr0cM7Vz8Iu9nYA6FIzcbBjBSrzjbEVDw5sWhSjPvkqeOGjF851E+JfvMy+e7l4GnHI3OqgTQfHfDTLOP63pGW43g3w/CEBAFpNm7BmJ4KCAAIDcsJSywngODJ7omTD3wYjtJZf8z/4bmL99QNRzYYaLF5xVkJ53/67fDpyJfio9vq2MiYiuGDLB1tuFcimxr6trKIJXdCpk1/4us7aXLIyaVqZHVp3ouk2KgLa8ZfjXvNA4D9yzd3WDdnSOAxx/TbBxZvuyPa+WHE+1wMw4gdFqSRnY0WAdSTIwtCq71W/XjSuwMqy3x0c++8pefv57yfI5anFiLVEnEtHSy5NQmxicJ1S2Ve+ynoLqfJNGIE70okXy76SIg1OAEJb2AqMqKvZNT/pbqFp+NFFp7+gDR2sO+A+I+i78ngGWhZrlRBFcWdCo47FSy69dnFHSsv7mj8t5DawDGDNN9GXbxdTGgZdaWyMkvFa5Vr6WjF5SXVViep09tKIf1Rdhs/LkuXp1wLC7gW1vAVKuXgZOf9NTUCimYQQRIsjiLJFwAA/966Qbbr3r+t9iUuwRM7C9e8uhcedC886CP/nym7e+P+u8GD+vS35ETGyGKelyl/cmn7kkvbJb9alXJm7eQza1vy90QiDHWwtjMigC5IevwkLsbf80TjvygnLUSqJSJNHW006PTYuHIGAGma2mnlxaW9ZeiqNwWtLFYTi04yDc440NRdPvULTwc0WHi6buf1nZ0NieqH1/6WxffRtLv1wpC22zf9lYv/vhz1VmnAojWjuhAAgNRMh4wdYdepNnBJE3trdTo97nE5A6iD2+JlA9TaR2+sEVR1ZRW/dkkdhqYoXtW7Kgn7W/tSZXVdG2jxajRM6d+nr+ZD56EjHdvgK5WbxoB4nwvEe2GK1vYWbMTUPEv4WMdJYgsBUttq+Bh3C83aH9pDC/nEEom0eaKzjY0evI6Pz6UAlPrMWf11Z+oT+zNNd93EpiobdprrfWThaQAgjT1GmhNv/j19XSbfqNXuIozUMzTgVsdGxZJWMyay/zz9TADA7rNw708btoQFT9InAAAIAoAqyCugFYzG+o8v3n80ueE9pXKOIGq/8qclQVYVcyI8rkp7qOewdvcFjQ2uPzKM6FV6Vi8Ha2UEVEZi8scuakpqIaDqtiosdP22A2tHaKL20UI+sURibZ4kEdAF+a8Zlq7b8llKv++72/qleRGLJAGAzWrqyg8j2vQYhqYl5E9zFp5W7jNpnAmVcurIv7K5Mtze2joInlw8fCvPwm/fz5MrDoVcK6ABgM5Nepz3toIyturJBgAq+ffdp5+Y+B04uHNe50s//vxA+tPXbY4g62oGtaCGqKw/th17xnGZNcOmfXXEGPHEAgAQfgiUNHC01SGBLk1O+uiNqJJaCFRnJSYXVVSiHpYmZLtoIZ9aItE2T7+8uPfoww6Tfjq4b7XNg42bbjZy912TkNrQDReuXr329xFvIxIpum26ffuvq5f3TTcRi7La2mp4xmnwGTZn4WnSYMKcrzvmnN16PEVGZ5H2t2orL/3M8vFnRDZROReWD7tsMHOfd+0jgFTerc3TbrXVDsoWUu1mbaavZTaoBwsASP1+o4enxRQUpD16XtyMa2u8J4d/2O1wbMFqn2vT9iRKf1a/lRqOQ2iGoWkKAJC6af8+PYwGjzQlAehqFZPBQ5XfZcXcSW38qSAJLQT4z47NGnzSZumewXxo4xYinRKJtXmm5P4e36/3fNKOMeU3fxxzszlvRADACIckAwxNi+5+/cLT2+8JLzx9c6fw28iu4/3nmL8Mn7v7f2KP2UlP+4uwRqAO9tZVCZe/uBGjOFav6TvCPN+PBAltp7khTnN5UQGDF1xo1sOgvLQTq1fr7w/euDR+xpbodrIILkPTYkcATdOUgAZAHdyW7Vzbv+6iGqk/Yvm24fyUX6bcS/3I/XgSkF0dzQofH2jjeVEplqjN2jxFMzQlHGE0RVOU8OxbsxaeVrKctWWh4YNNvrtb+Ahdi8hJhCG1fr4eb84tbeEKCHKIH7v1a+fgGj5F0zTDIEQggmBz2XTzHy2jiyJD/FYv+/mHdaO8l1ySvBDw58VUVlbyecKLaDAUn8/j8Wof4HK5TPH4FNWcR5CaQOgMm+P09PfjMjvbN5PUStRmbZ6pqqyk+HzhxBLw+TU8oShtxsLTSG3Aqk3DsoPnrLvyUqZnFWRqaiLLvy8dpKHnmtGZu3Y/aH9r22HNwdHQ5Lx98+7DGZpQ0lKji0ulN9RlW84KsH8QcjSx/X0DXeu0ZZsnVbVUqovLhDJLUaMDKitpfIXENiQfEYZhGCZRu7siiWEY1nw4wjAMk2M4wjAMk2M4wjAMk2M4wjAMk2M4wjAMk2M4wjAMk2M4wjAMk2M4wjAMk2M4wjAMk2M4wjAMk2M4wjAMk2M4wjAMk2M4wjAMk2M4wjAMk2M4wjAMk2M4wjAMk2M4wjAMk2M4wjAMk2M4wjAMk2M4wjAMk2M4wjAMk2M4wjAMk2M4wjAMk2M4wjAMk2M4wjAMk2M4wjAMk2M4wjAMk2M4wjAMk2M4wjAMk2P/BwzrjRuV9sF7AAAAAElFTkSuQmCC;" vertex="1" parent="1">
          <mxGeometry x="10" y="1345" width="406" height="90" as="geometry" />
        </mxCell>
        <mxCell id="gtqKSPDY2urYnu_UUiIA-172" value="" style="shape=image;verticalLabelPosition=bottom;labelBackgroundColor=default;verticalAlign=top;aspect=fixed;imageAspect=0;image=data:image/png,iVBORw0KGgoAAAANSUhEUgAAA/IAAACMCAIAAABQwAVDAAAACXBIWXMAAA7EAAAOxAGVKw4bAAAgAElEQVR4nOzddVxUyx4A8JlzNugGKWlBQGBJFfuqWFexsDuwC7ARAwsVu/XqtUWvgYoFFrZ0qogBCgiClNSy55z3ByEi7SLs8/f9vM97D1l2Z8+cc+Z3Zn4zgw0NDRAAAAAAAABAlBFNXQAAAAAAAADAr4KwHgAAAAAAAJEHYT0AAAAAAAAiD8J6AAAAAAAARB6E9QAAAAAAAIg8COsBAAAAAAAQeRDWAwAAAAAAIPIgrAcAAAAAAEDkQVgPAAAAAACAyIOwHgAAAAAAAJEHYT0AAAAAAAAiD8J6AAAAAAAARB6E9QAAAAAAAIg8COsBAAAAAAAQeRDWAwAAAAAAIPIgrAcAAAAAAEDkQVgPAAAAAACAyIOwHgAAAAAAAJEHYT0AAAAAAAAiD8J6AAAAAAAARB6E9QAAAAAAAIg8COsBAAAAAAAQeRDWAwAAAAAAIPIgrAcAAAAAAEDkQVgPAAAAAACAyIOwHgAAAAAAAJEHYT0AAAAAAAAiD8J6AAAAAAAARB6E9QAAAAAAAIg8COsBAAAAAAAQeRDWAwAAAAAAIPIgrAcAAAAAAEDkQVgPAAAAAACAyIOwHgAAAAAAAJEHYT0AAAAAAAAiD8J6AAAAAAAARB6E9QAAAAAAAIg8COsBAAAAAAAQeRDWAwAAAAAAIPIgrAcAAAAAAEDkQVgPAAAAAACAyGM1dQHA/zmuseMsx9ZcjAlMYAJjhDHGCCGEEUYIl/xDVX9YzT9Xi84NOr7N7x3V4JKS2g7TRlhJk5jAGGOC+F4yjEr/v3CKyhTGXtjqE13Y4JICAAAAAPwEwnrQuNga7QeP7CP3fViIzvn48kMmXeWLMcYlQTVGGBNlSJJNsthcMXEpWRkJNlFdCE3Zoyf3Vj3Jb2hJsbLVgFGj1cjvJc1LiXv3hV/Nq4mykiICEwRJYgKTJIsgSQ5HTFxKRkaSQ1YX7TM9ZCP8Xf2+Mg0tKgAAAABAZdjQ0KCpywD+r5HqjttOenZTLAvsmbywHWOnHI2rJlyu5c3EZVXUWmrp6hkZm/Gs7NrytGXZ5bEzk3vfo//cK+kNjZaxfOfVZ7YP0iBL35Hhxx+bNmZr6LeGvCHBlVFS1dTS1Wtl3MbCys7OykCBWx7mM/zwrUPH/5vQ8KEFAAAAAAiZmI7DTDfnnryWCmRuYtgdn337LkZlVd0R2TyRiooKTV0G8H+NyY178allrx6G0iX97JijasljBV179rm4AW8mKPqWmZb0/nXEi4e3fM8e9wmISqXkdAxayrIxwhx1lazbvmFZDY3rCxODXkt162OuUBLYY1LezEYh9vqDhAbkyzBUUV72l+QPcdHBjwKu+pw84xf6iS+pqa8lzyUwJpU1+U/+e/oZ4noAAACgWSA1Bm3ePzxj9xyXNfv+C+bzRk4bP6KzZOSNp5+KmrpodQZhPWh8BR+C3sj36NNGrjRcZimaW8lG+T38+KsXCl34NSHq8bXzV8Py1Cx4unJiSpqCF+cfpzQ4WuYnh0US7f+2VSkZA8CETOu2mok3A97k/WLCDMPPTop9euv8pafp8m2sDBXFZLQ4Ly/eed+gMQsAAAAACJd4e1fv7mFLll7+KEB0QWr00xQdx75tbUwFgedfNDgP4HeDsB78DkWfQqLZHftZK7NKw2U5Yzu1dzfuvs0XxpVC5X0K97/6NN+oaztTQ07sxbvvG/68IPgSHlZg1c9eg1s6XVZC184gM+BGTLYwSsoUpsbcu3YvVaNjRzNThSTf6y9/9XkBAAAAAL+MNHScP65HRxup2BtPPxYhhIrSOBZjehgoiiXdvNzwPIDfDBa4BL9HQeRB9z0h34NYskUv99WDW5I1/1XdMbnRx11m7gpjdx3eW+WXTmvB+zPumx6kl+fSEbLt56+fZMQVSjERQqjg3SX3aesD862HDtIT2vf/vUjTKTtX9FSoMCVYsoPL9mkWIj8FH8tYTDlw9fhEUa2YhsDSvGHTBplINM2Hy3Rec+2CZ9+W7N/3iX9eFf+BiBaOO/3OLOyo1Byrma3psPLCldVdZOq32huoWl3rug7N1rfcXIqQ0LZoLV8aRPDzCwUIYXEJ8UYqfCOAsB78Lvz44yu8H35fA4eQ7+iydlwrjvA+oeDlcfdd0aZOgwx+7VZOpVxdvfZ6ClX2DIIlLKatm2UtxLhHkHhx9cZ7SoOcrMSE96a/EalqaGWsKf399oElNE3sWqv9WmyGWawmbYOxlMX0PbtH5h1YcvwXFkoVOUSLdk6ThrVVbpJjz+Q89HK/Y7Bs/7p+Gr/hofAPreI/EJ16ZeWG2I4bDi3upNi8whxSra/n4ZVGD1ZuCswRke7fZq6udV17s0Ulnl08femS6UtOl65nQWq3NhDHTF583CfRuV+IfO9aw8j02nxzs0M9HpUF0dsHjTv8QXQqtlmiPl1auc72rFefFiURBJa0mrluRtiEHeENXpWy8id8vLhpg4K9sgIR9+VXpq4z6Xc3evi02TtSpzTJnmsw3tM1eNTaQGGNwzEZ/tvXt/xbVoVEiSJ4WhElK/uXwwRBIBZZ+xVFyhn3GjFiwF925gYtJKm8Lx9fBfmfO3w84G2hSs9V+wZFOc86V1UKI5bQtOnWx6G7vWXrVjpqsmymOC/tXUxo4M2L568FpwhlMhOh2ne1t7NywLzZfskiWCP1Rqg6LJxnGrp/352sr1nU18xMWly794ypxqE7dtz/pYunnpi88ANL9lqeWbltdvKE7WHCuhVU5U+r4j8bk/lo87Izx49u2JI0Ydqx+GYyjUncfPqOVZ1Tdo3aGwYJmEJTx7quQ7NVlBR0I6n8J3HekP4GJP/tuZOBOY1XemH7Q8N6/uuLGzwesdhKHSfM6qVFIjon6OSuK/FFCDEMgzFBslhccUlpBU2TTj07G8qTmM7JzBalFY6aK/rL7fUr7Ux3O2mVJtmLGU5cOz941IbHwuq34Mf77Y0XwvswuU+3u//DOzzNRKx0WZyWg1a5B49YdCNNSCcClXTv0AHhvFUTqHR/RASBEMY1d4ux1bvN8Vo1xpyM9z93dNX2D9lYRrNNp0EjN5zqbHUk1mbq38yxU5k/nQdcdfsRc+ZO7GvMSXpx5+Z/W/dGfshipNVbt+0zfMTklX1Hj72xedGa/+IKKv0ZS8lq8MQxA7patVLmUnmZKe9jgu77nbv44F3V65USagPdl3bHt1y3PxTKLAoRIMgvkO+99pR9+20BBdlF8r3WnJjfWzr6+LPf//WpBJ91h/r4zFvvEjR8ndBuBZX9gVX8pyuMObLubM9jc9Y7h4zdHd0MljKRsJq1ZqL+2/3Dz3wQNHVZ/s/Uqa7r12xxjce5DNHIfrJp8b5wUdo98g8N6ws/PL36ASG2jbEzQggx+c999p+7mVvFK3cd7u99es1fRGpqg1YvB5UxOY+2ehzjHZhkyC1dFkd76JplQcOX+ac3t+emgqiDy/fanFhgI1VyIyBVei5d4xQzy0cUu9cbwQ+7bZXswlvDq1laA72OruomFvnvTNfdj7+UHsLnjwMuX3nmdWLd3GEknXYu+MfMCCzZytHNc9Hg1qwE/x3OW048Ty1fFPXNy7AHV33veOzfNLDPioNy7Mlzz7wt/yWWsZq2c9s4laj/jm89Hfkxl6Nh6zRr5uiFPYeNvus1a5lPfOV7NJbtOneOvXj0zgP3/5iIj05/tHN6v5Nt+k1bvLiLmpTlgLNbZ/S+FpnRgHVnfx314fy+a6P2Dlw40Td4R1RjxF9/YhUDVBh57NCDQevGuQ2/Nvl4Uw+3kwajXEfqZN2Y7/MWgnrhq1td17XZwgod3DZNUQ3dOnPB6fhm8ERYD80r6ew3I7UteUokQkzxy+CwvKpfQ6X4X376jUpL/tzcgk7RlRe2d9mBiIqzZ/ssXzVQoxlObeLHn3T3flRhOoBshwVrJgpx9qzowiV3xB/+pYa4ntQd5bn0L6Uvfu7zdpbH9CWolFs7T0YLEPMt9EV0hdFTQrG9y+F/1ww1ooJ3TRmz6EiFmL6UIMV/wxqfjzSp2N5l5Ujd8hNI3HbuRmfLouALx0+evxMcG/c6/N5Jj4WHYwSIo/7Xks3OZpXnc5C6Qyf3Uix84nOlqRv+34qQMeg2bOy4nkpZqbmpuUrdhw0f1FFHqonahG/Pz11+R+gPm+yg2BjzCP/QKgZMxt0zt9K4vLET2zfNpPByWKbz5DEmrMSrPo9y4cGyMdRe13VutrgGo7zWdXizYcq84y8bMy+wUfzJYT2W41nrkwgh+kNwaPVdxYKc7FxB6mdhpV4AhFDR63+XbXuWXWH2bBc3z7EGv20xjLqjPl1cvfZWWnkkgCV5M9ZNt2ziBqLJldwaf7gb1hTVY6nOUydYStAfrp4O/DnLBtHJ0TFfKH7Ui+8P11jWzmX/tgltJPmxR+fMOxJZXWJGQfjFa28phMXNR422Ln3cIlt1tFchSbUu83d6DCiLEalP0dFfGYQwW7dbt0pTqjkWQ4cYs3ICr9z/+gc1t6Tp7ONn1/cnLs2fvCeGjtgxye2m+JBN549ONWyaB2wq3s/vJSXdYcQALeEX4M+sYoAQQoUh124nI+VeI3o0ygNjXWGlnk7dFeg316/HQld9Y6m5ruvabBFK3ZZvdkrf5Lzo4vtChBDXdsbyAZqiEyyLTkmFT8zCxpSDEaK+hAS9r9iDI2k6YGo/w7IuWUJaWionJaUAWgNhohLPr1x/5/vDFJa2mr1umnkzXESK/nJ73aoLiYLyZXG4huPWudjL/vFLk1Xu9KjhgIi17d1FgUBUWmo1T8eCYoEg7vmLspCfbDl4/aZxrcVRYezhlfvDa8p/oxJexeczCJEq9h2NSnIKma+fU/lMyZ7ERd8vbJJVercTCH7sr+WYO/RUJ4rCHgd/q/VL/x+hXp1aNHHo8EUnowlFRY68HBVxzHWY0xT3/942UXc29fHp0w80x7RHN01hx/V/aBUDhBBCxbGPn2YyknYOneWb7q5NqPzVx1qc/vTkMSzB1Ihqrevamy1x06mbnIn9M92vfyp5/iIN2ndTFIjQ5Mo/OKxnGdvwJDFCTH74i9iKw/tilk5zhlnIllUiW0qKSEpo+MaloGp06nXP1ZeTvq8iKWY8Yd38ts1wJV8m+7G3+4k3ReUlZWkNXbW8p9IffPEghPGPSYo1RfWEkoaGOEaI1crSopr6Lfz84lZg6RJipNYwD7dO8gSiUnx3HH9VywoWdGF+EYMQIlrotix5KqQ/+bhNXrrey3POeI8bZSsXEaqtDGQJhBD1OejFD0/xpFGn9iqk4HVQWDPNuWapdxg2pk9rKWFfGVRGXFTCNwZhroQYFpMQx4jJ/RDxOqPJbnVUfFBoJk227thBWbjXVrOvYtCo+FFB4YVIzKqznWRTFQHL2HYy5zJZ4UFxEEo0pprrutZmi1Tv57l1hqmSxfTdFy5dvHzp0tVr124fHCX56aMIpeL8uZEJ2ZJn1YJEiCmODa64viJW6Da4m3hUSHmkn3fdtcuEk59E51FNZDCZDze7n37HLw+X2TrDVy/9q0lHSquRF7Zv2f7I/ArTAXq7rxos9E7FeiBV7Kdu++9+aNjTO6c9nYwqDnNgKdu5ZwKf3PToVBJDY0mzCbuuPAn0WdJJWL1VuKoRzmpfzeRmZVMMQoRSn1X7ljt1MFDk/vhiQfjeiTNPxFMIIYTle8ydZiONEcOPPnMiuNabKUtGVhIjhDDminPKMm4yom6cPvnfg7flEzi4xgP7t2Ehhkrz3/FvaMUnBaKFhYUGSWe/fp1a4zXOVW8/ZsVeH//Hz0Oe3Tq7cSxPjpAw6O9+7IJHRyFuvVAFsrXTkmUL187qUv+QpG5lpt7+M6XP9BMJTR9uFL97/VaA2UbmxkKdvlJzFZMaPZYcCXj24nnAKa/R5jIYkQq8YUt2Xrz3LPTFPd8DiwebSDfDO9JvRii2nb3/6pPgZ/cvbJvRTolAWNqo7zzvU3eeB4U8vHJ09RhrxWY4N6pcYfzrjxQWMzE3bKpFQtgmVm24mHr36k1VU9JF/PDWQMxgkOfZ+89CHl8/5jHAQBwhtmr7sSsOXn0YEvr07vlt83vpCHuEvoa6rr3ZYpmNmN1DlSWhomugb2Cgb2Cgp6vdsoU0mfj+owhFgH9sWI/lLK0NSIQQnRSXiOTk5OUVVTR029g7unkv7iH1Kij8+3p5DEWJUI2KFCY3eM+ywzHlCU6YVOvnvmKAWjO8hRW9Orpi27OciptpuXmOMWjciK46WLa928ENPXPOLZ604THHtP/yteO+J0Rj6c6jRrSRl5CXFS8ZCpHuOnlWF20ZeaOho7oIcRT655lHVd42EUJMzrOAF98YhBAhYz7c/cDFgMd3Lx7ZsmTGsO7mLSoFcKT2wLF/KRAIMYVBl6/WvuYQ2VJPm4MRQgyd/63w575YTIrLa9uPXbt5Qiuy8MONtTNXVFqhlKVnpEciKuF9DZ/F1e678uTF/XPa5fl5Th7891iv5+rOew//c+zYmhFmmfHxjZwq+y3nG8MUf8ur38Lb9SlzcU5mbnPI92WyPrzPorGEgZFQn5hrqmLSYNz65SYhK8YuuVZk3G/h5hXO03ed9uqHAjdNHew4eVuUmtOqI/unmzXD7MDfiFBzXLW2e+K2CdNPpen9NWPLqtlTNp7eO04pfP/swY6jVj+U6O166MjCDnLN9vGH+vQuoZghlQ0NmigNh2jRSl+WoLM/vM/4OZgQ+cNbLXHLmVtmy1+fP27tMzHLoSu9F010OXR8pX3W1ZVj/x40+0iSycRNx7aP0BHqs1YtdV1zsyUI39qHZ9HG7Mf/mNvOuCSsDWt+hz90gUuExMxszDgYIUTqjj14b+wPv6PehNYwhfb/EWk2779/J2rX/2xgMi7N7bv68S+s6VoQc9h9p+2Jhbale78RSl0Wrx0eOe30++YQZ1REJfh4bGx7dm2P0o3ssJT1zPXOIeN3R1deMr2xiVs6L3X4uHX0at/PYj0GkRiTWrotSVQ6ussxb2cpjpHgdXhMScG+hd66l9KpjzqLlJASxwg1zv2ppjaHTruyfq2dzuq/tcQwQggTYkr6dr307XqNnOmW4O/tttynbNl5Urd3X2MORogpCr0TmFFrUbG8OU+bQAgh+nPCp8JKv+vv7ef5lzSJMWIKP97Z4OZxJrbyFjCEvKamFMEUp6dmVXPJkxp/rzuwzkEl9erCcSvuZNAIoaSd7pqWF12suJh6Fxkh/L2bCKUeS7ZNkLu33etYcAad9TWTpmXTM2mEkJh2r/nuk1s+XOVyPLaGRdeaoMxCQaenpdNIqYV6CwK9EdboQU1VLNFu7EiFW8v+eRovrZVCIS3V3tMHXHefPM/vUzFCCF3dcbJ/vxW2k12HXJt0UpT664SKZew0vk3I7uX34vjkx2LGRLbTlNGPvJwnnnpTgBBCSXv+6T3I28Fp0birQ3bGNLfbdonijC+ZNGrRQl2VQF+aYFiK1GipQSI6Pa2KqP7/4PBWDSv0mDCgyGfyqfAPeu0yaAdF/SHT6bNuo70eZlAIoQ9n9l4a1HWG/Zy5vW67+glvKnu96lr0HpXq4E8N61mGNjwpAiEm79mehUciihEmOFxpeZ0OI6c5ts4PDRG9WS1Ytt8WX8/uchySybg422Hl4/qstErF/DPDya8BS9vR+V8Sf3WfhuL3p923tD29smtpuEzI2M5dNzls0oGXzW0HCPrzdc9V7Uy291cnSzfTMp60bt6LMV4vfueCZVi266gB1OXpfp9pJG7V0VYKM8Uvo1+V3e/JVtaWcgSiEsPCSxdlpVNurFxqanpkjHJ6WvlinVjOfuGBDX3Td46ecyGpYfFKNX3zVaKSbi5zir3298A+Xdu3tTJSlSzd2Q+La/dcui0zcZjn0zyEEKFk01aPRAgh6l1ISBWL5lQugoxtR3MORgjRWWFBleZ6MlkBnkNCthAsrqym3Si3+Uv+Pd/5+IbVBx6mVBgHx4pKCgSic75mVb1eO9tg3DoPBzX89ab3lrvlbTKVFBycRFvp4eyIsLJPZekP37Z/rtbtecM3B//imYsV9MyMzU14hyzbHfJY8e/XrwWU9JevEoYDF65f5GgkwXz92lIcxxZVd3jqXubmhs76mkUjQlJZURIjYfWP1VDFUvb9uxXemRVeiNgWhnoshKh3J5asKo3pEUJMTuZXAYPFzDq1lz/1seJTJlbsumz/2h6fNo9w9a05e0sYxJXVxTOTvzZNTMfm9e8t83DD4xyGbG2oz8GI+uy7aunpN+W9GfzMjFwaS2p3tNfZE1OSSiduMXXv9jHcU85jD79u7HMNS6uq4i8pOTV9DpP5NYtBagrKiiRCTXDysxWUpDGiszIzfzpXGnJ4S0lazd6/ZTj174TJx5vhFU0o/dXfNuHGlvcUkjAw1CARUxSxd/6mh+WTd+ivGZkUwtJtu1iJ+QUUIIQQodbHc7+7bdTKYSsCGnr911LX9Wm2RNQfmoRDalhaq5EIMcUxdy8+fv702fMnTx7eu3Xl6KaTQcUFESEVptASHHHxZpgTQuqMOnDv9srO5YPDTLafa9fOy+4WMEXRYTH13Sib/vb5XXwDvEvOFkJTQyX7rlx7I+X77FlxM2fPmdbNcBVJJuOB1/LT7ytMB9Ae6blQmKkttSNUZIoenPZ7JUBIsm3frgoEUxR2IyCFLvutBU+TRHRWeEiF7s6CqEfPs4o/vHpT/rBHtDC3MxD7lpJWww7mHLMZ5+5fmMcTzsM/k5/4+NxO95kje3bs2nfMPI8d54NSixmEMKnRz6mzDEIIIVJHX5uFEUJM/tvXn2ptqbB8J4e2khghRKXdvRFSedSEKchMSU5OSnwf+8Rn5axND4vVOjrvOLFpgFaFL4QlJCUQQnx+lZcModrfdSpPAlMpN8/dq/CUgeVN2mgQiOHHhJXtZ4gl9G14KlRaSmb1+zkRyn033bi3vb9SLecLFXdw4gBnr3NhAsvpe84dGK4jwLIdF585uWqAWsqdA0tGOC67VX2bV48yNztMUWERg0om8db8Sq7B8M3XHj974LOse4taWrHqq5hUlC58fv72SwEitSws5AlEpTy6G1vhNCLklZVYGGFSQanSDHlSw6q9nnh+Wnp+9ddPXau7hqKzZTQtek/bdObi5sEtm6gZwjJy9Kv/roUUIKxgYaFFIDo3+M6LiivOcpSUZQmECEWV0p4ZRMi1tjWVK/r8uYYdg39qwuqN4Mpp2zrO2+Pzn0ePWpZaYIqKChmEuWJiTXIUsbikBIERKiz86RxsyOEtRSqZtWsty/+SVsNRxtL2y6/e/Xec7u//3lhFIuf2xbvJNGK3tjQTw4iKu3f/U4V4gVBWUSIRwlwlJZnSb0ZqWtm1JDNT0qvts6i9VWrium4G/szeeixrZdOqZMX6kLCKo2KEnIIcFXv9+/LZhNaoA2e73hjkfK7xe2Tqg9T8q6+NAnU694cQgmVkbsyh4kPCRG63CybjzoYVPqb7RuqwS/rBOQbjVk67M2RbRJPseVkD5lvQzuWHeEdmmomXlJRU779igX+wx8PftXQe9cZnuTtCCGGZjn27yhNMYbDfnfLTU4JnbcRCTGFUcGTF2I3kihHpoWEfyyNl6vWB0Z2PU3n51T+WsYwd+hrJ5twWelahIOdjxP2PEfd9b787eG5RW0ksptlShUQ5FMJcsZLZtHR6au1j5YRmv6H2UhghpjDmzKnnNeZCUSk3zz9Y0Km/rGr3pWuGR0w+VTpDFJMsEiNUzC+u4luSrYaMspfGiEq9fyeyYoMszrNpw8GIehdWvqI+k3N7icNjVlFeUbV3Cizbvl9XVU5Abg2PUmUKk5+d9nx2fh9vwFx3t0GKbGRn8uKo27yjd+Nzar4T1afMzU9xcTFCCLHZtexhwbYeO6OHjgyBTIZMc/S5f7Cmzsrqq5hKuLRqIUIIYSWepS6J6OywoNcVLwh2q9Z6JEKILsivFL4LIrc7dd5fXNP1U5/qrgKns8d1z85FH19lKNobSL2s659hpQHbzrnbS9TnUYIpit43Zmo1G3MyGQGbXAIQQkjczNKYjZnCqBeRFYejSL3WrTgYIbogv6D03KRTfGZ1vYYL8vjVfvWqm7C6wvL9t11yNct6/yZfs31L7tNa/6CYL0AIIQ6HjVBNNwpSZ9zBU7NMOfU6fPlP1g5xvVJDyiBmsVgYIZoqFlR+UUMObykq4fikrudRfn71RxmJWfXprSUZ86325RlZFvP+2zdCg1WPb87QmX4LB69+WPUBpWKOu8UghBCpzeMpkYj6GBKaVOEUw1IGhhoEQgydX/7NioM2Dui4lZ9fUO31XIdWqa51/X/rzwzrxcyszTgYIfprWMgPa91hbsGHq76PyhNPOWZOww3CjtxtbntRYRmejRHxLSD0VcVGhdSysVRByf4/XDuigsl9tn35QfPDM9uIY4QQnRN83u91c4vpSxTGHlq23fLkYntZAiHE5L/0vVzdJsWNCUt36GUvTTCFIQEPylsUtrGVuRhGgtfB4RVjN1LP3EQQtPWHzEymKK/GZWZIDWsrdfT5QUjtvebVIjSGbt9tenn06rtVfRT16U5ArEtbWzZTWFgy25UpLChkkCxGTFFRrSNOkm3Hj+WJYcQUv/PZcuZ9baXkf3j7kUayBJawdOpvdHZ3LIUQQkwxX8AgxOawf27OSO2unXVJhOjs4CfRFc9FlqktTxIj6kt4WMVZmFRBXo2FEDO3Nefyo4Kj6pajw1Gx6j9x2qQ+BmyBgEGMjPXgyVMLmENn79UU2devzEJMHKpdXTJJWCXxvEBQyyAgnRT/vpBRlMB01vu3tUwUqKmKS4m1sTRlY6Yo8kXEjxEVz1yWQIjOfvvmp34duqDm66e+1V0ZP3BNjy4IIbFeWwOtVOv8Z0yG/wbneCVuveJSwdeE2hdCYhlZm0tiRMUFhVdcJ5RQseBpkAgx/HdxH74fpNkLypUAACAASURBVOL8Gu+JVTdhdS9x5tX5Xa8iRLQYcfCmmVztf8Bms9D3x8bqUYmXVkwOlifr91SU/r7m1HCm5JkSk2xWtZOb6nd4S9+XX8s5yDKy4cnQ8cF1WNlVEH1s7hR/6frkqDBMXlp8rYEzlrWw1CMRnRUW9ENlc9pYtuFihKjkN2+/nytUQX6Nj111aJXqWtfVEdNxmOnm3JPXUoHMTQy747Nv38Wo6mZeNUt/ZFjPamVtKU0gxBREhrz8oeapt/+tWFv+E1boPtZROnBlQHpz69zitrFuwymK+LENwvJW1vpEzq2Q16I0raaCguhDy/a2PetiI1705vRCt5NxzS23vpzgw7kVm9qe9/xLnk665r5gT2hNGyY1FjHrLraSmCmODnxanmpBtrSwUCQRlRQWnlLhPkTqduogH3Q4tD5dF1ja3KoVkeMfVI92l6l0GLCcXdd20kknq43QGYZBCFHpsTElURP1KTGJQi0IhGVkaxlWFzeb7OqoRiKm4OU/K/dV+Gpki47TlzjbK3y+v9frn+ffB+MYfmFprxahodOSg0qSLZjCwgKEEIdTxZpGHH1DHRIhpvhlaPQP0Z6OtaUyiZhvUeEv69FykK2szWXo+BchtQ5/YEmTQa4Lpw2wbsH+GvyPy17ZJR46Pgv9Wy1wme3de3z83eNbNx5+klplu1avMpcmDr2qJXFo4/GFnL1OC6428D6I2TIaJvb9Rk8fo3Ft3LjDNT1/lY7WMAV5tWz/RyWcmjc+pbeNzMeH15/WMvhQUxWXYLWy4kkRiHpdKaLSsGurTSJEZz9/FFHfvMZ6VLdwMQWp8bGpwn9fUt2Cp0YiKiHkh5AKy9m1M2EhxBSGBr6o+32wyias8WAul4sRU1RDN3ApOjf5VWyykD++tN8Ci4lVew4K9/CWItR4PDWUfC/4Yx26ZqisxNisen5AXXDNrEw5mCmKDPpxANmwrZ08gRCV8vhRndfyr0urVPe6LvVDs0VqDNq4Z9A7z+n9Z2fLWDi5b1nkftRWZ/YE72fNd4yzsj8xrCfVLa3VSYSQ4HVoeA2ZE2LmE6Z1zr85/Uluhb9Vajtp4fQeLVEhxWVnBe70OPAskxFrPWrtkv5GKih8z+K1L1qMmj2unaqEso46P+iAu6dfnvX4OaMs5SRU9FXznuxbteHqhwoNBFe9w4jp4xyMJIqK2DJiGU8Oee3xTyw99wlZk/6TJw+xa4EKaUkZ6tXFnVvOpPbe57OAxyY5YlxMt116/cWSgsDVjm7XcxiEJHg2bdj8mI8Soz332mtIKGiq5D07uHL95fjab5yk2dzz/05qwDpTTMbluX1X/cpKOBWxW9q21RWjU/09Z2953qwXlCJVePatZVH2M+95q/2rjq8avQg6pq2lCUQnhUd+763kGBjpkogpfBNbcQVDVut+vZWf7HxScrJLGA1dusjRWFUm8/q6hXtf/HScSZOZp/4Zr8NiccTYmOrlFdiTzrri2m/t08qBTeUg/mdiFnYWXFZqdeO6WMbKzohkBPG+V0qTrejU50/fCixbswgVE9MWRGh1k3mxXEfXtRMNOYhKvbN+0b6ICs8rnLYzPaf0VCIQMl6TEdLPK7TsQGAOt3RonSnMLyj7Vybjy1ca6ckoyLERqtRUkGwOiRGiUl6/qXiUsIKltT6JkOBlSGQ+QohU7jRr+ZT2WsrEy4NLVl1+/1OILNNny1WPLuIEm8slmOIZ5x9PL47cMXz6qWo3wyCN+k8dYq2U8fzgiuUHHuf+5S3Hkud+Pr90dPAT1w1LBveYMirw3NNLVc4ormOZS7+8cBOHqlDPTBJCTl6WQHRextdaP47OiQs4F1eXMtRUxSWfqsqzVCMRlRD6wwlHqHfuakIiRpBw8Ux5ih2WNhniMtNBU6GFev6t1a77XvzcDVrv6hYJWMrCypBEdFZESMUgDMva/2UthhGVeuvUrXQasbV6uywbbamhUPR06+KNdz5X/s6E+sj91TZhjVh6OQU5jOjMjK9NM5JdnPElh0bycvLyBEqvqgh1PLwlxHT7zpk/0EBRRR0/377A687P2QTsdkv9tjvKEyyOGAsLhh96MkyQcGLyiD2xv//rkwaWPBkCUa+Df3hmJo26dtEkEVMQ5XMuvBhhWauJ7rN66KtIfPRZvvRkTOVBiDq3SrXWdc3NlnjbqTNUr812e5YuQOhrxJlVXua8rX1HLhnnN2T3S1HJgvgDw3osY2ljSCKEqKTw8Goz5rGU1Yzlo7XeH3KL+P6EyW0zfc9Gm5vTJiyOK5S3X3pky9yBN4KO0UPn2D5bMummy92ty3YZRgef9Fo8/V0+23ax36El62U7pSXf2rTwcGKBWAePa3uXzXnxwPVGDkIIIULRfv6Ozf3zj7nMWhWWRWPZbmvPe+9j5zh5Pc9HYgZDNux20Xu+ds6EG4mFiK0/8ejZXV78EdOdO50htSYeuzRf/tQkx60R31sptoktTxKz2vRod2WR2+R3+RzbJdcOLZkffH/OlVojZCrm6Eyn6w1bCSdBSDE9Vuy8ZNdie3bYnpnu15p1GhGWspy51bOP/NtT89xOvWmqIQXM5XAQQnRmxvfxXywhJ0NihIrz8ivEllL2w/sTfm5P8hFCSKrdgsW8R0unnHY6c3bi2C4ng3wrxyVU7N4R7feyLFwuHh+bvXPwhCO1Lx6PUJUjyyzjtlaSpJyNvSn3SfhPszSxpNXkqd1kmOQLO46/LDuPqbcXTj4avaarHMt80GBjn11VTf4m5Gxn79zkpMMqTvJfP2vp5R97orCYWNl0SxZZ8YzGKqolm5cyBRHBsWUfSGelfC5gsLhSCzkCVcpdLUpPzaaRCp2e9vWHCLlDZzM2RtTHsPA0GpFawzzGFB2YOaXluvvrnAf5XNsaWTl0zLnh1uUGlhuw6/Zqi9uuDu6BtY2aCML2zZ39lIx+/CqTQoSasgKLkFeQJ5i4+CueY0NutFNLflrdKkF1KnMFQk4cqqyemSRYSUWJQHRSYgMXZ6pSTVWMSiIqnhELMXmxkRUX1eSYDBliwUZU0mXvI2WTFEid4esXqJ9cND1YcfKZ81On9j4f5POlck3Uu7pFAruNVRsuRoLXERUnXJMt+zu1l8B0xv0d+x7lMhzTKR593q91PtFhz5WFE3udvH+s8s2DTj5TbRPWmKVXVFYgEJWUmNw0z1Z0SnIqjRSVVBSrWbm1TocXIYQQodJ7xQq7u8tmbCkevN9/2bTB5+/vj6/8lsXPNji02yDW2fP2rp5Ra3rPvtxkvWRECwtLDRJRKTExFY+9ZHunfjokU/T69GafBAor9V06U+WCy0Q899a+aSNtzrkHVrrx16NVqlddVzospK6VpYqhqteCiPFbnuQwiMl5Fhhe1Le7Tof2Wvte1pro2Uz8gSvhcM1tzLgYITo3IvSnq6GEuFb3Bbt3TjCkQy74Vljqkm01yMkw73VkQgFCpG679gpJobHpqFW/Hrk3bn1R0dLgIJR2dcP6q+/yGYRofnEx4qoRjzdsup1YgBASFPEFiCMtXZrgyTYYt9l7nNozr2WHwrJohBCTE/IiDrX8e1BbcSzfZdnuZZ2zTy5dd6Nk/cjihJDQNAm7QQ7aJMLSPBtDIicsOO6HxHptaytlnBuyy3VNSQEoPr8YsaSk6zR3is5t8Eo4wjnTxU0mbd0wWD3pwhKXf2KadTPI0hq8ftvk1jkBnrO9nzfhXvRUUuKnYgYR6rpaZQO7pFbvXmZshJCYqppc2aUtYeU8r33M4ZORRQghrNxrhGbAXv8vyja2LVHah4Tq1vEgNaytNFByWEhytfXL/PzTj/9E6thYq5CI1B6xclFPjR+3nSKV2s/c4T1WrzDy8GLvxxV66ui0axvX306hEKvVuFWuHZQqLWbAUrQev+X4vinmnJQHO6eNXXjhfeXHBX7E4+A8hilKDfXZcDTs+yXCaW1vp0QgxAgSLvzr/z2fpPjdq3cCRGrrav20bkJx9KNnmTQilFQUyi4iLM1z3rawoxRGdFZE6FsKsS2GOaQcOx5DW9iasYsSPlR7vLjmthbcosjgyLrEx0zOm4eBrzJLtt2VU5AnsLSCfEkfTGFS8P3g5GqXsqlLmevh92aSYDkdXXmCzo9/U/1p1wA1VDFCCLFNrSzEMMLihiZ65TN1JUwnLxmjj79FHFi85VHpZY4Ve8/6K2bLrueZNEdLX5OgiwqqTc2pV3XXQVMvy0fqWfLkCYRIXRPj8iXK2NrDljtbihXFn3Vffe0zjSQ7jrAO238hgWvZtjWRnZhQXdd41U1YY5ZeQ0+bjanU+LdNFN5Sn+Pic2hCVkdXscqYq06HFyGEkES7acNy9m+685kidfS1SKagsNpFY1hGNhay9JuQ0KZcQkPSwqo1CyFCwdhIreyrY7l2cxY5qqKMJ1sW748oQKSu42Dyv/3P8/RtreTpxA/VpQzVoVWqta5raba+5eZShIS2RWv50sLy8wsFCGFxCRHake6P6a3HEto27Q0VuZIKbQZ2KZnqmM3S7NqzZ9n5gQkWmy0hp2loxrNrb2OgwMZ01o1zNysPIhKaI3dfMgsOCnp0fZrD1uQihOVubdyRkiftYNWKyAk4daF0NQFCobWxKs64fKKs45lQa2OqhNL847IZhBCh8rfrNCuJxKP/fk/cx9IyUhiLKSjJW05xdVQverjn7MvyVoOQlpPEmK2siFGKmY3ZTw0GVrC01iNyb5+5VDr1iVBsbayKMh7HNdONZyoi1fqu3TGLxw9cM8crUHjbUjQCrNhx8e6lnTjhu2a6+wk19Kg3Jv3WsYtjbUZqD1i4MGrt8edZSp2mLp8uE3g9snNfM+uJS0Z82PPwi6y545x5PV55jfMr7aPNe7Z3Q04K1psywJx8d/haVDU51Vja3MqQyLldn3aXqXSDJBStbPWYhMvrT/KHzPe+ZB9+7+6TyHfJWYXsFm269e/XSY/zKWDz7NVnoitljFIp15dPKc7wWjXCdNRuH9OrPr6PYt6nFXCUdM3tHQb0tdNkEu7td91x7O67KhM1mIybuw4OspqjQxWLKciyU74WI4RIpQ5zl4/WIxGdHbxr2a7gCg+OdEp0zBeKp2xo1IJ4XilPIv/hgd2BHdw7D5g5/uG6K0lSpr0mLpjSVUMSI8QURYdG8xEiEi6vP/ihUKqbY3elvEeb71S3HAZpaGMu06AmlslO+pSRiz7VcYe8OpS5URKHhIGlb6TPYvjRIVFCXYGzpipGiNSxspQnEJ2Tqzxq5cI3HkdC8lXths11G2OYHuDl6uFTYQezoqhDa+6/KUaIZWTVRpJ+ExpeXbZzVdWNpe1nrB5V8yIrDPX51pb1V6uKa5o0rieUeFZaBKLzcsX6LlsRs3RnYLqcxYDZrs52Rc92z19yOOQrgxAqjjmxLuwNo+I0oL3Elyu+z6pLceVW0YQRLXq6uDvqEDUeHUH8Bc/t93+e44FreeoRMzDSIpm8yKabd8Z/Gfmy2LG9npEBG33+6eyu2+FFCCFEv/dZE/0mHyFSg2euglL8w1KquSQJNUtLdZR8v8YguLGxTazNxTEjyCk0cF49+6Pn2VdIt8s413mOLT5cWrbAyy+BjxCiMwI2bU3N5vCm99UuDt/sV8307bq1SvWs6x+bLSrx7OLpaTwcdae0DKR2awNxzOTFx/3CyhG/2x8T1kt0mrdzY0+pCjcNUrvfEq9+1f8FlXTtbOAPCX/FQcc2X7FY3t/AoutAiy79B7ZbMdzVLzXr/assJN7F1oLLjwoqv09JWNqZsvKfBpUlERCqnbqaEGkXAmMFJXuZ9LGTpBN97sR+P/XETMxbsehvqWnavaZqEgWBNwO/P22S2m1MZAk6OuUzTbaytZClK69iKcGzNmUVhb0ILy0AVujQ1YzMvPEgunmuJvMdlrVdsMujp/TLg9OXXUxo1qUVN5no7TVUI+n8fJejsU0+pMDkPt40ecr7KZMHdVl4aKAUk/320SmXaUeDBYZPpkwa2n3qjvNurJzX90+vHP/P07KQkMlPiktEbPOpfxsysTuuVTNaVd7uhlSXesEwPyUpVo7qEbeNuVyg55zVlxKKLz+5M3i0k0OHYR2HKEhxijM/Rj+/uHadz5XglKrDN/4n/43jgi73GDa0d2e7YfN7y0kS/JyvKe9iw/02H716+0Vibk3BJT/u+JxJWQvc5645M8Y99f37zwXiGgZ6StyipMeHvb32B1RKGxPEBD7NGDm4ta2lzIlPlTp4qMSLC8fnTF0wZdQu3/li+e8eXf5n4b4Buxa0J6k3IRG5DEJURvwbhBUHOHaWzgy4+rC64RtC3cpSAyU/CK1/E0snX5rd/VLdX197mRslcUgISH0bawVcHPao2hSjBqqpiglFnpU2gaiky4vd3vRYtODINRVWXnL0/RMua8/df/fDicZ8S4z7hkoWrbdSQyl3q63NKqubyQ0+uT5evMZFVhi6KLfq3Oum7a0Xt7AyZmM65/6aiXfN3ebsubJMvCjt1aMry0efvRWbWVZgfmrce0RqT+xvxfl05kpodQMVVTZhdNrDg2sixGsO66mCrKrnbdd8dDhtbC3EUN69wJAmW4WByXz2MLrYnmdpa0g+iqpcw3U7vAghhApT4j6gkqWErA2IXP+Q6mJcLMOzMSLr1zUjdKSuFU+RQFTs0TmbCkcs9jg9UQFnfwjz3zPT5dKzT2X3FCY7IS4bSXQe0Fu18PkB/58mZJSqrVVCqJa6rkuzVZQUdCOp/Cdx3pD+BiT/7bmTgTn1++ZN6Y8J6/NuubS/9StvQCqaduKxglYN7eSl2sq885iFro6detqI+/nlIYRYRnaWMvSboNCyVp1jascTF7wMKlv4kNDo4WBOfj53O4LPUdZXFUhpqrJQXnR4hbhK3KaLrQSddvPma+WRiiQVF1mhF5PU6NhRnyyIuHkvGan3sNRAKadDkyiEsJSeZcvs8JcZpIkNT5J6HRScXZZ/17W3NSf96q3gApaingb1IaGZLtDE1R+9acs4vfQrC+fvDW/YrLzfhFTvu3bHbEt+4Oo5mx42kyEFKj307MbQsxt//NdXvlsX+W6t/q/ErBz7tOSHbrz+kZbV0uN8fvelcioBaWjLk6PfhoTmMAhheUMrxZTQ+B+7mStPPGLK17UpU3DX3elu6f/99PiU1+NT9ftuWa9uHVx762C9/qisMN9e+3qOvbHP0MrWopWGvBiTdyHxVejz8IQqd6IsDPN/kD5oiGUHW6mr/rmVf1uQELBzfsDOsh/Fu65dzMaISg2PKJ8AQqg6DGgnnnrpyvN8sRb6yvnvPlbuki9pYnP9S3qQuJo8Q0FU1OdG6/6ppcwliUMzY2jLwWbsojghJQ7VQc2xKanZvr0OURh882517XqD1VDFJREVkxcTHvHy9pOJl9bU/m5Y1tK2FfEtIKy6/sDqqpufk57W0OigSeN6tom1uQRmBK8jwt8G3J4WsKX6l5Kt+g0wI+MPXIsWSGjoy359l1J5USNC3bqKJoxmCnO+FDY4dqrp6LBMOrRXRDkBNx824WImdMp9/6gFVhYd7HV3RlXqT6nH4S0nZmFrzuVHVx/jcs0qvIBUaWMu9jYs8Td3RmEFCytdAtFp0RGxoUFLh5+s4aUyXQZ2k8996Hsng1DUbUklfKgcstShVaq1rmtvtiriGo9zGaKR/WTT4n3hzXZZvir8gbn1DUJqj91+ZJf3mlHGJPXt86snF/69+YGf8qEk8R2RmjZWaig5NLhsnIY0sLVRZN4HhZZmwJAtHXqbkZ8CboQXKzgsXu6gkJGaTtG5md+3aCU1+o/uIff17vaDT7+mfcmh6ezM74tTS1qNHmoqeHVy68WPjJS5tRGZFxn+WoAQu9WYZSMNEINILSueMkoKDS6dJEKoO/Sz4aQG3Awtkum20L1Pi+a5XzKh0mPFDrd2zNPN8zzvNOtkISxr57LTo6dUzIH5Sy8liugCoqWk2jv2VC585uufyuJNWTXKkEQIISxj2H1QH6sWLFSyMghPA6WGhydRCEnYTVvytyr1852v8g2SQUw1KzI3EX563LMb508cPnjon1OX/EOqjukRQqggyOfiW1qm04Datwsm9SzMpAnE5EV+X3Cb1P7bkcdOuOkbxlfss3hhFzmMEEIcNZu+A7saSGOEEGKbWptxi6NDowsRItQdl8yw5Nb4MUL1U5nphMvrD74olOro2F0p75FvvRKHsLT9zK279+zeU8N/du9Y0b+aPVFrOL6kft9+JkTmfZ9bQo/qa6hilrG1hSRGgvjol3UOecQs7Mw4/KgfnnYau7pxUybhkFrWPGUS0cnRMRm11A3bfEBfPSryil880hnuMcOyJFFcQqfjwAHttMQRQghX2YT9mhqfecSs+/bUQCl+Pk0Z1SNEJ/mdD8whWvXt27pSb2o9Dm85VmtbS+lKC9KTSua9BzqYlmSFkwbWFrL029CIHAZhhR7zXTvJ/P52S9zC2pSNmaJXkbUNGWClHo4dJDPuXn2YK9Fp3vL+6kSDWqXa67rOzRZW6OC2aYpq6NaZC07HN9dtuav2x/TW/yqupAT93nenz0sKIcRW6zr+b7nA/WdiSua0yfCsDYjMa89el8YNhKqVtRZK9XlRNt+W0NLVwtl3nr+SsJk3qPj84nfJ6NyDKZ7t/jKXDg/NZcQ0/5q3da5exI55HtdTaSbzvwtv/nbq0kX96qUkASnXZqSnZ/+iS8vm7YssQJhLYsxkfE7jE/Lt5iwwurXxUAaDFS2s9InMq0Flc+xJbT1tMu/Zs2i2xZQhxEWPKufeNzEsyZu5bV1/pTfHZi88+7ZZXzZcg9GbN4/V++LrtmB/RA2bxYsEUlFXW4aKfvi0UM9prHbAju0FCCG23dw924YrFwXLD5p8+hMiSYzotM+pDEuth9sUiTPLnlRab4xhfu7kYOqw4mUzJXh99p97Tus7Dx+gfeNY1XttliCUzC3UCcQUvwz9HtORWnotibRrj+Ok7d16pZ1Y9IlGiFAbvG7fEjt2mvkMxzVPCxBBkkx+2uccJNVm4tLOkTvcat/9R1h+LvOvJA41WiaJpN2wwQbU6wNH7zfKrMZqqpjUsrZUIRGVFhNTXYryT1jGtjxp+s2L4O8FbczqJliskm1KG/wOvwrLWVrpk4j5FhtZ24RrLKmj24J56/s4tUXvldaRx9wyGIRIw4lbd84wYOK1xgzZ/ZImqmjCGlw2kkUihNlktds8YYWuI3q3KAjyOhbSxHmTTNadw2fju0zpP6LDEY8H38fi63F4y5EtbaxVUfKdigvSS/dYfGCTg2TunaV/u/plIoJAiEpLSaPFdActHZKx3y3mt2e4soxtLCQxot5HxdS25D6poaPNLQx5GEKaT3JiX1j9SlD/VqnWuq5Hs8U1GOW1rsObDVOWXXwvSh31CEFvfZ1Rb0567nupPWXb0SNHjx47tq5X6g7npX6ly2MSysoK/MTrN8LKYlMsJyeV9/bmreiyJ9Ti4LOHHmfbLvhn++DPO9ffTGfo9Fses7wiTVecOX/s6L8H1vT+dszZaebR6FwGIcSP2T/P7Twz8sD5M0cPH90xXefZaqfRnv4pFEKIyQ44uPsB1WvlPwfX9EzY4f5fAoUQ0UJZviDx5q3yRQSLQ88fvv+lzez9O8YWHlrv19w2yUUIsXWGbtw+xTjn5uq5O4KF2YlCqrUd9LeVkvBObLJFT48dbm2ZJ5vmed6t47TFOiEULPoNaadRda9m46E+3Th++Y3aqG275iheXOtTEm/QSdERKbl5lL55azZC9EffPf8GKwzbdmjvEt7ztev8qxhJYSoNaDIMgxhaVON6JuP2tv1BfLOx07rUuAuWhIVNazZGdGJ4xPd+NX7Q2cNPCju4HtzY8822nSXL+tA5b8LfZH0rkDAx1yAR4j8/6n39s93Cw4c3DxccdT8U+xtbiirLXJY45F+SONRS+udvXZpJEl6eSWKmSiKEED8nPS21RmlfsqrZTarauJ7UHjrtb+VP/20+0VhbS1dZxVjeylqfRExRbFSdJ1OSWjbWLdCn4KAKc+gao7pJk8lHrvndvnvbsysXkQbOx+/4X7/m697l96/IIW5p04aDkSAuMra27hcm+8GJU+GSf3vuW2YeuOlQSYYInREblpDzrUjFzFQOV92E1RvbzvXc1Zu3/S+6WrIR22bxpTu3rl0/Nduq8sMPt83YqV3FX/7rfUmYa6Y2ED/23y0XkhT6Og/Tr1DOehzeMljOysaAyAr5YVemwoSomPS8fNzKzIBEiIo5s8sn1mDGwUM7Zqpe8dj+/PcPVZDatpYqJKKzYqJr3Q5LEOt7JCDFdMbe7SPzDnvdTKMb0CrVoa7r1mwRSt2Wb3ZK3+S8qCSm59rOWD5AU3SCZWxoaNDUZQB/GkKxq/sx70HyEdsnzzr2Sph9KFi2+7pL7tSav1fcr3Hr8jq/n7T13IP7Jul+ODZ7yjahPn4gcetFZ3dpH+k/2/cX+qqEitSetHfi2zmrHtS+oSan5+b7U16PHlW+ZSihOurwRZuz3VxuN+txl5qQ6gO8T6w2vDd7xLrHlWsaKxh1sNaVU7Z0mj2CJ4OLY33W/vMiN+Pl4+BPNUVs3K6rd+oemXn093XNV1BjmUndqafOzxY/MXrIzs/9vddKbpt58iONOGo2PdpKxd15EJ/LIE6HVf57+75c02fGhQysPmznSrHNM4839JuI9doa6N3t3S6n0QeqmKdNthy2x8dN8fz08dtCK/fACVOFKn5CadnZG+u0Hec2zFSc+Rq4z+vS28KUsMDo2p7csbLTwRvLWl2d2Wv100rnepNWd6PgqFt2MtexGDZ/gq0cLgj9d83pyIL0mIdhyfXecxdhOcftq9DKBb6/c4lJrrHzsWPjC/dNcD76pv5FbhSSvLnHDg7P3TFqyqkEsqGHV7LnRv8tnYOW9Z7vV+lWxeK57P7r7uyt4U2a8wn9xwAAD+NJREFUKYplDTvYtdL9a7pLH10W/enGtu3+Kd8Sgh7H1X9F6Dq3SnWo67o1W+Km0/a4t/RxXXmrdJiSNJ17ZnL8ZJfrP028aqYgCQf8ZljS3HnHhkGqiWfnuRwXakyPsFzHBa4O9J1Zz4QS0yOO3rCNWycZZt1YPk+4QwoISfCmLHFSeO5xr5lMvkUIYQVri4LIq3XrLKUoiqIrBkA0zVBUFRn4ooNKvurhprlnx6oVIeOW3EipGJoRLR3dt7vw2GW9vGyTEau9h+feWdo/5FNh9d+ZY2qj9uZeEy0vV3OZf3fiUE2ZJBJmUzbM1Xm+buquRo3pf6ziqbe7bPfuUzpIgRU6z/LqRH0+O/VJdHpVIQGp0mHitN5kwI6Dz3DHLuasrwEPIn56fm3S6m4ULLNx67eOVi8dUBS3mrjBis6+6dY3PJlf7ytdytpGLPro71xBHcu1d1k/XtJv+exjzSWmRwjlhe+dv1r98LL106NnPOtTj8OL5XgjZwxRDd6/PSDbtqutZH7o/ec/HU6ypa3Rl4iDTTz7Cyv0cN2xokPpUq6kZh+3Lb2LX+8b9TSu3tvc1LFVqmNd195sker9PLfOMCU+Tt99YTpCCJNstoS8UuGFqY18bxImCOvBb8XSGrhxu7NZ/r2Vc70fC7XfBstZz9q5frD655N+1a6sVh+Ecnf33YvtWSHbnFfdTBFmW40ljUdt2TbRKP/m3qadxFURlrGf2jfzokvV68dVxhTm5xfzBd9fywiKi/lFzXp50toxOWH7Zs+nt67ZOOb1pGMVNqKjE4+OtTlaz3dj6QydpP/Ie1sTHZSay8wPOnv4SZshrgd1Xvtt3VQxcchEV8LEXIN8Gs9/ftT7eqtpCw8fTkkMPOR+pKGZJIc2DdaUkFVS4iJs4Hz8zsD0b/lPNo9Y+6DkiR7LdFq8rlfixmmrrn38DcFIeRWv1nDtYeteWExRdcgcI01HL5s9ROPd1wsBKuNn2eXcXrn7YeVWvomru1EIQr0HtfUu5gto+hfnzYi3GTuce929pnkrQka06L9qmcXzZVM2PxBm6qQQCD75rXBmPHZ6LoieOLitN79uh5doOdBl4SizTPLmOaqHWy/imfc2v8o3a0Kl17R2L8+cqG6/gN+Fybg8t+NVil9MUb923tSxVaprXdfebLHMRszuocoika6BSoW/4z98/7F5nUQ1giQc8PtghU7uR72dlF/unTZjf5QQn35JeYvhy9fN7aUtTr89PHLIrthfbT2wFG/Wof2TW6WcnTtx0xMhPn5gyVYDXNYvHmwsjdL+m9Vv9ZMmX/6+BKkzfPmADzt3Pa/jdyUkFWSpr5kVlwKRU+Dmfs39P+qr/DWSHee6qF7d+N/POz01b/9/mSS/DsvYzNi2ZrBy1tf8b7FX9u/2Cf1pRrCoVvdvQSj1c5vKP+blnypCsVFzwzUZ4+01Xi//y7f8D/7/7D726KdUHbbZFHfr517/CrNpbVL1bZVq9Yc0WxDWg99F3MR5/8HZbTIuuk5ec19YHSikrEHnIROnTuhnokBihAQvdw8fUVX2br2wtYdsO+beibrrMX6Rr7A2lyMktNo5jp86aZC1CgcjRCWfnOq4Maj5DA4DgBDiWLnt/uverC0hEJ4CAIDogSQc8FuQ6n97bpvF4z9cP2/9L8b0BEdGWVPXwKiNpW37Tl3aGytxy9KHGX7UtevvfjEMxwqdluxa0pkTscd5xS/G9Jgloaih28rIxMKmXceu9uaqEuV7KFKJN6+FQUwPmpf/x0wSAAD4g0BYDxoflrGdv32lgyrOfctqO3ODbfXbupW8HOOS/8aYQAhjArNINltcQlJaRl5eQVFRXpJT5RbjTGHItZu/uIyZeOtJ3uuddNlFiYLWE1Z511LSkqLiEghjgiBIFocrLikjKyenoKgkL8WteoFvwRs/v5eivasV+P8j2W6A/v1NG9//fw1JAwDAnwOScEBj4+gN3350WQfFxl72lcm7v7zfnKuZv7C1iVrvdUe8+qrXuNeOEDD8sC0DJx0TpUk4AAAAAGjuRGeFfSCauJazdy62b/SYHiE6O9D3wa9MrSENxm/ybPyYXjijCgAAAAAAP4LeetD4MEESBEEQZbkquDTPpuzX1ew9+UMGTOkPJf9T9Q9CWDe9tKQYY0I4Ja26wDRFQVQPAAAAAKGC3HrQ+BiaomhKFBJ2RaekAAAAAAA/gCQcAAAAAAAARB6E9QAAAAAAAIg8COsBAAAAAAAQeRDWAwAAAAAAIPIgrAcAAAAAAEDkQVgPmi2W/vBd/o99F9qINXVJAAAAAACaOwjrQXOFJfRteCpUWkpmcVMXRYjEW4/atGuqKbfq3xJqjuv2uLRXgusSAAAAAPUE4QNorpic20sc7HtOO/m2UdaRZxuN3u//8PJ8XgP2buDYL7/95MmL4NCoqIioZ/ucVL9fRyzbxf6h4VFREdFREVERwY+29pP/voUVqTV4w4b2TzceiSn6/mYVByXolCteJ7lzd8yylPzlLwgAAACAPwqE9aAZowryihppO1Ys27otTxmlp2Y2YGda/pN1Dvadxh2Nz83NZyTshjnqk2W/EgR59WzrsMw/4915lz7t7Dq6+JV/AKk3es0ssbMbfJMqPqdUGpRgcp7u2vGq92oXe+mqd7QFAAAAAKgKhPXgz8Sk+7p279jT+UxCA8cCCCWeef6pHdc+0yzDwUOsKub/C2iuWOrt8/c/FVR4JsEKDrMmqAYc9k3+8UHl50GJby+OnP7Sz2Vsa9gDGgAAAAB1BmE9aH5I5U5ztx87c/G6z7qBuuxG+5jivG+FP48FiGvaj1m85ejZ875XfK/6Xrp86fyF86d3jzUkK7/O3FI+8rGvz8U4AaHaZ1gnme+d62KmPLWY0B9zh8iW/Ud3yrlxJazw54JUHpSgk29eCdUcMqq9hBC+JQAAAAD+DNAfCJobUmuYx5iiAzOntFx3f53zIJ9rWyMFv+mjxQ2GeKweUHz7n30LvN9m1fipbBMr/dfPXxe+S/kvaJJ7u67DeqveOZdCI4QQy9DK6F3wJn7Fl5NaPR2Ms55uj6vT2ACT+fxRrLRzT2vxhw8LfvE7AQAAAODPAL31oJlhWwxzSDl2PIa2sDVjFyV8SBbyhFmWWpfZXgcO/nPR7/zGgdoVnmsJtQFrVtk+WjrV41hgLTE9QqSWpfHnsMhCRKfdPH/vKyNmM3RgaYI9ocZrkxMa+a3iy7G8tV0r+lV0XMVFfWoYlKDTY2PTZC2t9SuPEQAAAAAAVA3CetDM0AmX1x98USjV0bG7Ut4j3zsZDZjSWi0sY+/mOSBl31znmXtjNPvMGmnJKv9N55mD03as8Uvk1/IeCCGE5S0tmPCwbAYhJuehz/VPNMtg0FBLMYQQlra0Eg8PS/0hvYfUMdInv3z4mF/hn7SGeYwpOjxzyqE4vT7Og4x/HDijPiV8YtT09SVh3iwAAAAA6gTCetDMUBnxb9IphW6OnaUz7159mC3MqJ5lPG6K7Ll1Fz8UkRp62hxUWFhY9vZiNt1VH/0Xml/LO5S92sxKKSb0Y8lAAj/iv0sviwnVPkM7y2LENbdt+bJSYj0SU1GVYzK+fP0e69cyKMHkfPnKJ5VVleEKBQAAAECdQG49aIYIVYcB7cRTL115ni/WQl85/93/2rv/mCjLAIDj73vHDw+FkAMX7RDH+CULAxRnkVprDmwclAtXatTSpbGylhn9YpmWy2hBzPUHYznSHIFNhdj8kZs6QEXOA0GCPAWkEhG0SOE4vXv7IwzuOAQnIk98P39yx917f7zbd8/zvM/T+veo1L3Svm/zl01XFEn2mhUVpOraf8rUV9Nqv8DpMxa9kxPt9HtsVw5/vaGoP9VdwmOCzxkbbi3UsTYV/3B81cbHn1ga/+DhxtiZzYZM+yF/WTNZIyvmXnP/p9ta9mzObTZPeTL5Kd/rZZmDJiWU3h6zpPHQjMbPBgAAEwBZj/FHHZiYHOXasn2v0aLVp6+fnJW2Y3Sy3tphMkmSJEmTZs2OdLPUGWpv7Uuj2Kw3zpdmb9rf5eyLFEtXx4DRdLUu5uHO6vz+h1mVjoOFh96M089JWbLwQGTXqYJrjpEuKZJk9zdrp+msJGuTkhd4Xv156EkJ1uAAAICRYYof4496elCAqv14+a+ej70a3769+LfRPpLKJSw22stmMlT/F/G29sbzvuHTr19yqv2q3Q70D8REuZw22p1jda28qPiCzSUk5YPnPWscFtZLkmLuNiuyxt3dvtL7JiUO/jspEWB3/pTsrnGXerrZBwcAAIwMWY/xx3KyIK/CHLcu9/NFZ7Nyyp0OoN8NtW7ObH+pzWho7R+CtxiLjwa9uCzMbfh/10TF6hqMDsdY3Tiz68c6i2qqVlVrMA3avKf38qW/ZB8/H7us75uU2LfXaNEuTl+/0HvAq7KXn4+7tePS5Xt0yC4AAPi/IesxDnXXbHtdn/jCy6s3FDWO8CHWOyB7x8wJVnUZTjYM3MXSUpe3pWr+pozFAbcte7Vn+LNL5ik9FjeHe8faWlJUcc3WW1tVO3gvnZtNZ5ts0wJ1dudL3W5SQq0L1MkXTSbH1TwAAADOkfWYcDRRsZFuvTWV1Q4Hvl43frP2i5bErG+3rE6YPUPrOclVbT+6PnPN98cqjxS9N98vJDW/rCxvmW7g/aN0HirY/3vdiWonzwEoV4ynmtXhkaEDH2a5zaSEyjciYtqfVZWDx/0BAACckkNDg+/3NQBjyTX2/ZK8lIuZiSt3/OFkiYusCXhUn5wQ90iQ3xR3V7Usy7JkbSv5eG1+4900tjp0TeHO+COpz+XUD/8xsk/y1tLX2t56ZtMJ87BvBgAAYCccTBQeYUlpKyLO5X+1uzViYdw06y8FZY7PtfZRelorCrdWFI7yBVhNe3aeXL4qKTq3vmq4VFc9lKCPbt6VOuwbAQAAbmERDiYA2WvRGx++lJy4IMx/btq7S33q8zILm8d4fYutrTj7u6sJK/X+w910U+a+stzvp+yCc6zAAQAAI6bWan3u9zUA99rNHtcZcyOnegcviFGVZ6V/UtBwH3aOtHWeNnTHpy93PXqgYch9+GXPeW9/+nT9Zx/tvjD4yVsAAIChsLYeGEseESs2pnlsW5d7ptfJqyp//caMkNKM7GOd7GwJAADuBFkPAAAACI+19QAAAIDwyHoAAABAeGQ9AAAAIDyyHgAAABAeWQ8AAAAIj6wHAAAAhEfWAwAAAMIj6wEAAADhkfUAAACA8Mh6AAAAQHhkPQAAACA8sh4AAAAQHlkPAAAACI+sBwAAAIRH1gMAAADCI+sBAAAA4ZH1AAAAgPDIegAAAEB4ZD0AAAAgPLIeAAAAEB5ZDwAAAAiPrAcAAACER9YDAAAAwiPrAQAAAOGR9QAAAIDwyHoAAABAeGQ9AAAAIDyyHgAAABDePxoNspmvAEBAAAAAAElFTkSuQmCC;" vertex="1" parent="1">
          <mxGeometry x="-70" y="1500" width="1010" height="140" as="geometry" />
        </mxCell>
        <mxCell id="gtqKSPDY2urYnu_UUiIA-173" value="&lt;div&gt;a是属性，包含opacity,scale,features&lt;/div&gt;" style="text;html=1;align=center;verticalAlign=middle;whiteSpace=wrap;rounded=0;fontSize=20;" vertex="1" parent="1">
          <mxGeometry x="30" y="1290" width="340" height="30" as="geometry" />
        </mxCell>
        <mxCell id="gtqKSPDY2urYnu_UUiIA-174" value="p是点xyz，q是四元数" style="text;html=1;align=center;verticalAlign=middle;resizable=0;points=[];autosize=1;strokeColor=none;fillColor=none;fontSize=20;" vertex="1" parent="1">
          <mxGeometry x="50" y="1656" width="220" height="40" as="geometry" />
        </mxCell>
      </root>
    </mxGraphModel>
  </diagram>
</mxfile>
